0
SECTION
2
HEADER
9
$INSUNITS
70
4
9
$ACADVER
1
AC1014
9
$HANDSEED
5
FFFF
0
ENDSEC
0
SECTION
2
TABLES
0
TABLE
2
VPORT
5
8
100
AcDbSymbolTable
0
ENDTAB
0
TABLE
2
LTYPE
5
5
100
AcDbSymbolTable
0
LTYPE
5
14
100
AcDbSymbolTableRecord
100
AcDbLinetypeTableRecord
2
BYBLOCK
70
0
0
LTYPE
5
15
100
AcDbSymbolTableRecord
100
AcDbLinetypeTableRecord
2
BYLAYER
70
0
0
ENDTAB
0
TABLE
2
LAYER
5
2
100
AcDbSymbolTable
70
2
0
LAYER
5
50
100
AcDbSymbolTableRecord
100
AcDbLayerTableRecord
2
0
70
0
6
CONTINUOUS
0
ENDTAB
0
TABLE
2
STYLE
5
3
100
AcDbSymbolTable
70
1
0
STYLE
5
11
100
AcDbSymbolTableRecord
100
AcDbTextStyleTableRecord
2
STANDARD
70
0
0
ENDTAB
0
TABLE
2
VIEW
5
6
100
AcDbSymbolTable
70
0
0
ENDTAB
0
TABLE
2
UCS
5
7
100
AcDbSymbolTable
70
0
0
ENDTAB
0
TABLE
2
APPID
5
9
100
AcDbSymbolTable
70
2
0
APPID
5
12
100
AcDbSymbolTableRecord
100
AcDbRegAppTableRecord
2
ACAD
70
0
0
ENDTAB
0
TABLE
2
DIMSTYLE
5
A
100
AcDbSymbolTable
70
1
0
ENDTAB
0
TABLE
2
BLOCK_RECORD
5
1
100
AcDbSymbolTable
70
1
0
BLOCK_RECORD
5
1F
100
AcDbSymbolTableRecord
100
AcDbBlockTableRecord
2
*MODEL_SPACE
0
BLOCK_RECORD
5
1B
100
AcDbSymbolTableRecord
100
AcDbBlockTableRecord
2
*PAPER_SPACE
0
ENDTAB
0
ENDSEC
0
SECTION
2
BLOCKS
0
BLOCK
5
20
100
AcDbEntity
100
AcDbBlockBegin
2
*MODEL_SPACE
0
ENDBLK
5
21
100
AcDbEntity
100
AcDbBlockEnd
0
BLOCK
5
1C
100
AcDbEntity
100
AcDbBlockBegin
2
*PAPER_SPACE
0
ENDBLK
5
1D
100
AcDbEntity
100
AcDbBlockEnd
0
ENDSEC
0
SECTION
2
ENTITIES
0
LINE
5
100
100
AcDbEntity
8
0
100
AcDbLine
10
-26.272115145893345
20
-16.226206488019798
30
0
11
-26.09111539003397
21
-15.538206762678
31
0
0
LINE
5
101
100
AcDbEntity
8
0
100
AcDbLine
10
-26.315366183491005
20
-16.343187994367455
30
0
11
-26.272115145893345
21
-16.226206488019798
31
0
0
LINE
5
102
100
AcDbEntity
8
0
100
AcDbLine
10
-36.034114276142375
20
-20.714207357770775
30
0
11
-35.367114459247844
21
-20.961207098371357
31
0
0
LINE
5
103
100
AcDbEntity
8
0
100
AcDbLine
10
-35.367114459247844
20
-20.961207098371357
30
0
11
-35.316005145282993
21
-20.974556631452415
31
0
0
LINE
5
104
100
AcDbEntity
8
0
100
AcDbLine
10
-36.674117480488079
20
-20.403206533796162
30
0
11
-36.034114276142375
21
-20.714207357770775
31
0
0
LINE
5
105
100
AcDbEntity
8
0
100
AcDbLine
10
-37.280116473407993
20
-20.030207342511982
30
0
11
-36.674117480488079
21
-20.403206533796162
31
0
0
LINE
5
106
100
AcDbEntity
8
0
100
AcDbLine
10
-37.847114001484165
20
-19.600207037336205
30
0
11
-37.280116473407993
21
-20.030207342511982
31
0
0
LINE
5
107
100
AcDbEntity
8
0
100
AcDbLine
10
-38.36911717531229
20
-19.117207235700462
30
0
11
-37.847114001484165
21
-19.600207037336205
31
0
0
LINE
5
108
100
AcDbEntity
8
0
100
AcDbLine
10
-38.841117297382603
20
-18.584206289655537
30
0
11
-38.36911717531229
21
-19.117207235700462
31
0
0
LINE
5
109
100
AcDbEntity
8
0
100
AcDbLine
10
-39.259116564960735
20
-18.008207983381126
30
0
11
-38.841117297382603
21
-18.584206289655537
31
0
0
LINE
5
110
100
AcDbEntity
8
0
100
AcDbLine
10
-39.618117724628704
20
-17.394207662946556
30
0
11
-39.259116564960735
21
-18.008207983381126
31
0
0
LINE
5
111
100
AcDbEntity
8
0
100
AcDbLine
10
-39.915114794941204
20
-16.747206396467064
30
0
11
-39.618117724628704
21
-17.394207662946556
31
0
0
LINE
5
112
100
AcDbEntity
8
0
100
AcDbLine
10
-40.147117053241985
20
-16.075207418805931
30
0
11
-39.915114794941204
21
-16.747206396467064
31
0
0
LINE
5
113
100
AcDbEntity
8
0
100
AcDbLine
10
-40.313117419452922
20
-15.383207983381125
30
0
11
-40.147117053241985
21
-16.075207418805931
31
0
0
LINE
5
114
100
AcDbEntity
8
0
100
AcDbLine
10
-40.409114276142375
20
-14.678206152326435
30
0
11
-40.313117419452922
21
-15.383207983381125
31
0
0
LINE
5
115
100
AcDbEntity
8
0
100
AcDbLine
10
-40.409114276142375
20
-14.678206152326435
30
0
11
-40.437114154072063
21
-13.967207617170187
31
0
0
LINE
5
116
100
AcDbEntity
8
0
100
AcDbLine
10
-40.437114154072063
20
-13.967207617170187
30
0
11
-40.409114276142375
21
-14.678206152326435
31
0
0
LINE
5
117
100
AcDbEntity
8
0
100
AcDbLine
10
-40.437114154072063
20
-13.967207617170187
30
0
11
-40.409114276142375
21
-14.678206152326435
31
0
0
LINE
5
118
100
AcDbEntity
8
0
100
AcDbLine
10
-40.437114154072063
20
-13.967207617170187
30
0
11
-40.394114886493938
21
-13.257206625348898
31
0
0
LINE
5
119
100
AcDbEntity
8
0
100
AcDbLine
10
-40.394114886493938
20
-13.257206625348898
30
0
11
-40.282115374775188
21
-12.554207510358664
31
0
0
LINE
5
120
100
AcDbEntity
8
0
100
AcDbLine
10
-40.282115374775188
20
-12.554207510358664
30
0
11
-40.101115618915813
21
-11.866206831342549
31
0
0
LINE
5
121
100
AcDbEntity
8
0
100
AcDbLine
10
-40.101115618915813
20
-11.866206831342549
30
0
11
-40.057696734638469
21
-11.748946852094504
31
0
0
LINE
5
122
100
AcDbEntity
8
0
100
AcDbLine
10
-40.758117114277141
20
-9.792207426435322
30
0
11
-40.057696734638469
21
-11.748946852094504
31
0
0
LINE
5
123
100
AcDbEntity
8
0
100
AcDbLine
10
-31.00611630556131
20
-7.1312071746653043
30
0
11
-30.339116488666779
21
-7.3782069152658885
31
0
0
LINE
5
124
100
AcDbEntity
8
0
100
AcDbLine
10
-30.339116488666779
20
-7.3782069152658885
30
0
11
-29.699115191669708
21
-7.6892067855661832
31
0
0
LINE
5
125
100
AcDbEntity
8
0
100
AcDbLine
10
-29.699115191669708
20
-7.6892067855661832
30
0
11
-29.09311619874979
21
-8.0622069305246775
31
0
0
LINE
5
126
100
AcDbEntity
8
0
100
AcDbLine
10
-29.09311619874979
20
-8.0622069305246775
30
0
11
-28.526116763324993
21
-8.4922072357004588
31
0
0
LINE
5
127
100
AcDbEntity
8
0
100
AcDbLine
10
-28.526116763324993
20
-8.4922072357004588
30
0
11
-28.004115496845493
21
-8.975207037336201
31
0
0
LINE
5
128
100
AcDbEntity
8
0
100
AcDbLine
10
-28.004115496845493
20
-8.975207037336201
30
0
11
-27.532115374775184
21
-9.5082070297068082
31
0
0
LINE
5
129
100
AcDbEntity
8
0
100
AcDbLine
10
-27.532115374775184
20
-9.5082070297068082
30
0
11
-27.114116107197059
21
-10.084207243329855
31
0
0
LINE
5
130
100
AcDbEntity
8
0
100
AcDbLine
10
-27.114116107197059
20
-10.084207243329855
30
0
11
-26.755114947529091
21
-10.698206610090109
31
0
0
LINE
5
131
100
AcDbEntity
8
0
100
AcDbLine
10
-26.755114947529091
20
-10.698206610090109
30
0
11
-26.458115969867958
21
-11.345206922895283
31
0
0
LINE
5
132
100
AcDbEntity
8
0
100
AcDbLine
10
-26.458115969867958
20
-11.345206922895283
30
0
11
-26.226115618915809
21
-12.017206854230732
31
0
0
LINE
5
133
100
AcDbEntity
8
0
100
AcDbLine
10
-26.226115618915809
20
-12.017206854230732
30
0
11
-26.060115252704872
21
-12.709207243329853
31
0
0
LINE
5
134
100
AcDbEntity
8
0
100
AcDbLine
10
-26.060115252704872
20
-12.709207243329853
30
0
11
-25.964116488666782
21
-13.41420716703591
31
0
0
LINE
5
135
100
AcDbEntity
8
0
100
AcDbLine
10
-25.964116488666782
20
-13.41420716703591
30
0
11
-25.937116061420689
21
-14.125206655866476
31
0
0
LINE
5
136
100
AcDbEntity
8
0
100
AcDbLine
10
-25.97911587831522
20
-14.835207647687765
30
0
11
-25.937116061420689
21
-14.125206655866476
31
0
0
LINE
5
137
100
AcDbEntity
8
0
100
AcDbLine
10
-26.09111539003397
20
-15.538206762678
30
0
11
-25.97911587831522
21
-14.835207647687765
31
0
0
LINE
5
138
100
AcDbEntity
8
0
100
AcDbLine
10
-31.188115512104279
20
-6.8892065948313181
30
0
11
-31.111346636982219
21
-7.1037175124948941
31
0
0
LINE
5
139
100
AcDbEntity
8
0
100
AcDbLine
10
-31.111346636982219
20
-7.1037175124948941
30
0
11
-31.00611630556131
21
-7.1312071746653043
31
0
0
LINE
5
140
100
AcDbEntity
8
0
100
AcDbLine
10
-31.90311566469218
20
-4.0332071250742381
30
0
11
-31.188115512104279
21
-6.8892065948313181
31
0
0
LINE
5
141
100
AcDbEntity
8
0
100
AcDbLine
10
-32.335116778583782
20
-1.1212069457834657
30
0
11
-31.90311566469218
21
-4.0332071250742381
31
0
0
LINE
5
142
100
AcDbEntity
8
0
100
AcDbLine
10
-32.470746432514439
20
1.6297629409963204
30
0
11
-32.335116778583782
21
-1.1212069457834657
31
0
0
LINE
5
143
100
AcDbEntity
8
0
100
AcDbLine
10
-32.441115771503696
20
1.8017929428750605
30
0
11
-32.441115771503696
21
2.6108229392701681
31
0
0
LINE
5
144
100
AcDbEntity
8
0
100
AcDbLine
10
-32.470746432514439
20
1.6297629409963204
30
0
11
-32.441115771503696
21
1.8017929428750605
31
0
0
LINE
5
145
100
AcDbEntity
8
0
100
AcDbLine
10
-32.441115771503696
20
2.6108229392701681
30
0
11
-32.335116778583782
21
4.7607930236989553
31
0
0
LINE
5
146
100
AcDbEntity
8
0
100
AcDbLine
10
-42.480117236347461
20
1.8197929495507807
30
0
11
-42.288115893574016
21
5.7407930427724434
31
0
0
LINE
5
147
100
AcDbEntity
8
0
100
AcDbLine
10
-42.480117236347461
20
1.8197929495507807
30
0
11
-42.288115893574016
21
-2.1012069648569516
31
0
0
LINE
5
148
100
AcDbEntity
8
0
100
AcDbLine
10
-42.288115893574016
20
-2.1012069648569516
30
0
11
-41.712115679950969
21
-5.9842068618601267
31
0
0
LINE
5
149
100
AcDbEntity
8
0
100
AcDbLine
10
-41.712115679950969
20
-5.9842068618601267
30
0
11
-40.758117114277141
21
-9.792207426435322
31
0
0
LINE
5
150
100
AcDbEntity
8
0
100
AcDbLine
10
27.378883923320529
20
-1.1212069457834657
30
0
11
27.523884381084201
21
1.8197929495507807
31
0
0
LINE
5
151
100
AcDbEntity
8
0
100
AcDbLine
10
27.378883923320529
20
4.7607930236989553
30
0
11
27.523884381084201
21
1.8197929495507807
31
0
0
LINE
5
152
100
AcDbEntity
8
0
100
AcDbLine
10
37.331883038310764
20
-2.1012069648569516
30
0
11
37.509014691142795
21
1.5160829359227739
31
0
0
LINE
5
153
100
AcDbEntity
8
0
100
AcDbLine
10
37.557884777812724
20
1.8017929428750605
30
0
11
37.557884777812724
21
2.6497929328614793
31
0
0
LINE
5
154
100
AcDbEntity
8
0
100
AcDbLine
10
37.509014691142795
20
1.5160829359227739
30
0
11
37.557884777812724
21
1.8017929428750605
31
0
0
LINE
5
155
100
AcDbEntity
8
0
100
AcDbLine
10
37.453304852275615
20
3.2611929708653991
30
0
11
37.557884777812724
21
2.6497929328614793
31
0
0
LINE
5
156
100
AcDbEntity
8
0
100
AcDbLine
10
37.331883038310764
20
5.7407930427724434
30
0
11
37.453304852275615
21
3.2611929708653991
31
0
0
LINE
5
157
100
AcDbEntity
8
0
100
AcDbLine
10
36.755882824687717
20
9.623792939775619
30
0
11
37.331883038310764
21
5.7407930427724434
31
0
0
LINE
5
158
100
AcDbEntity
8
0
100
AcDbLine
10
35.801884259013889
20
13.431792550676496
30
0
11
36.755882824687717
21
9.623792939775619
31
0
0
LINE
5
159
100
AcDbEntity
8
0
100
AcDbLine
10
35.237545574931858
20
15.008352571123275
30
0
11
35.801884259013889
21
13.431792550676496
31
0
0
LINE
5
160
100
AcDbEntity
8
0
100
AcDbLine
10
25.876923168925998
20
11.520693116777572
30
0
11
26.23188456418967
21
10.528792672746812
31
0
0
LINE
5
161
100
AcDbEntity
8
0
100
AcDbLine
10
26.23188456418967
20
10.528792672746812
30
0
11
26.946884716777561
21
7.6727927261525704
31
0
0
LINE
5
162
100
AcDbEntity
8
0
100
AcDbLine
10
26.946884716777561
20
7.6727927261525704
30
0
11
27.378883923320529
21
4.7607930236989553
31
0
0
LINE
5
163
100
AcDbEntity
8
0
100
AcDbLine
10
35.237545574931858
20
15.008352571123275
30
0
11
35.397884930400608
21
15.337792688005603
31
0
0
LINE
5
164
100
AcDbEntity
8
0
100
AcDbLine
10
35.397884930400608
20
15.337792688005603
30
0
11
35.644882763652561
21
16.005792909258037
31
0
0
LINE
5
165
100
AcDbEntity
8
0
100
AcDbLine
10
35.644882763652561
20
16.005792909258037
30
0
11
35.825882519511943
21
16.693792634599834
31
0
0
LINE
5
166
100
AcDbEntity
8
0
100
AcDbLine
10
35.825882519511943
20
16.693792634599834
30
0
11
35.937885845927951
21
17.396792703264389
31
0
0
LINE
5
167
100
AcDbEntity
8
0
100
AcDbLine
10
35.937885845927951
20
17.396792703264389
30
0
11
35.980885113506076
21
18.106792741411361
31
0
0
LINE
5
168
100
AcDbEntity
8
0
100
AcDbLine
10
35.952885235576389
20
18.817792230241924
30
0
11
35.980885113506076
21
18.106792741411361
31
0
0
LINE
5
169
100
AcDbEntity
8
0
100
AcDbLine
10
35.85688456418967
20
19.522792153947986
30
0
11
35.952885235576389
21
18.817792230241924
31
0
0
LINE
5
170
100
AcDbEntity
8
0
100
AcDbLine
10
35.690884197978733
20
20.21479349672142
30
0
11
35.85688456418967
21
19.522792153947986
31
0
0
LINE
5
171
100
AcDbEntity
8
0
100
AcDbLine
10
35.458885754375217
20
20.886792474382556
30
0
11
35.690884197978733
21
20.21479349672142
31
0
0
LINE
5
172
100
AcDbEntity
8
0
100
AcDbLine
10
35.161884869365451
20
21.533793740862048
30
0
11
35.458885754375217
21
20.886792474382556
31
0
0
LINE
5
173
100
AcDbEntity
8
0
100
AcDbLine
10
34.802883709697483
20
22.147792153947989
30
0
11
35.161884869365451
21
21.533793740862048
31
0
0
LINE
5
174
100
AcDbEntity
8
0
100
AcDbLine
10
34.384884442119358
20
22.723792367571036
30
0
11
34.802883709697483
21
22.147792153947989
31
0
0
LINE
5
175
100
AcDbEntity
8
0
100
AcDbLine
10
33.912884320049045
20
23.255793862932368
30
0
11
34.384884442119358
21
22.723792367571036
31
0
0
LINE
5
176
100
AcDbEntity
8
0
100
AcDbLine
10
33.390884960918193
20
23.739793115251704
30
0
11
33.912884320049045
21
23.255793862932368
31
0
0
LINE
5
177
100
AcDbEntity
8
0
100
AcDbLine
10
32.823883618144748
20
24.169793420427474
30
0
11
33.390884960918193
21
23.739793115251704
31
0
0
LINE
5
178
100
AcDbEntity
8
0
100
AcDbLine
10
22.001885021953342
20
15.484793000810775
30
0
11
22.298883999614475
21
14.837792688005599
31
0
0
LINE
5
179
100
AcDbEntity
8
0
100
AcDbLine
10
22.298883999614475
20
14.837792688005599
30
0
11
22.657883251933811
21
14.223793321245346
31
0
0
LINE
5
180
100
AcDbEntity
8
0
100
AcDbLine
10
22.657883251933811
20
14.223793321245346
30
0
11
23.075884426860569
21
13.647793107622299
31
0
0
LINE
5
181
100
AcDbEntity
8
0
100
AcDbLine
10
23.075884426860569
20
13.647793107622299
30
0
11
23.547884548930881
21
13.114793115251693
31
0
0
LINE
5
182
100
AcDbEntity
8
0
100
AcDbLine
10
23.547884548930881
20
13.114793115251693
30
0
11
24.06988390806174
21
12.631793313615949
31
0
0
LINE
5
183
100
AcDbEntity
8
0
100
AcDbLine
10
24.06988390806174
20
12.631793313615949
30
0
11
24.636883343486545
21
12.20179300844017
31
0
0
LINE
5
184
100
AcDbEntity
8
0
100
AcDbLine
10
24.636883343486545
20
12.20179300844017
30
0
11
25.2428842437551
21
11.828792863481674
31
0
0
LINE
5
185
100
AcDbEntity
8
0
100
AcDbLine
10
25.2428842437551
20
11.828792863481674
30
0
11
25.876923168925998
21
11.520693116777572
31
0
0
LINE
5
186
100
AcDbEntity
8
0
100
AcDbLine
10
21.769884671001194
20
16.156792932146221
30
0
11
22.001885021953342
21
15.484793000810775
31
0
0
LINE
5
187
100
AcDbEntity
8
0
100
AcDbLine
10
21.603884304790256
20
16.848793321245342
30
0
11
21.769884671001194
21
16.156792932146221
31
0
0
LINE
5
188
100
AcDbEntity
8
0
100
AcDbLine
10
21.507883633403537
20
17.553793244951404
30
0
11
21.603884304790256
21
16.848793321245342
31
0
0
LINE
5
189
100
AcDbEntity
8
0
100
AcDbLine
10
21.480883206157444
20
18.264792733781967
30
0
11
21.507883633403537
21
17.553793244951404
31
0
0
LINE
5
190
100
AcDbEntity
8
0
100
AcDbLine
10
21.480883206157444
20
18.264792733781967
30
0
11
21.522884930400608
21
18.974793725603256
31
0
0
LINE
5
191
100
AcDbEntity
8
0
100
AcDbLine
10
21.522884930400608
20
18.974793725603256
30
0
11
21.62612398984885
21
19.622782998674545
31
0
0
LINE
5
192
100
AcDbEntity
8
0
100
AcDbLine
10
30.221884335307834
20
25.280793481462638
30
0
11
30.910885418681858
21
25.100793176286853
31
0
0
LINE
5
193
100
AcDbEntity
8
0
100
AcDbLine
10
30.910885418681858
20
25.100793176286853
30
0
11
31.577885235576389
21
24.853793435686271
31
0
0
LINE
5
194
100
AcDbEntity
8
0
100
AcDbLine
10
31.577885235576389
20
24.853793435686271
30
0
11
32.217884625224826
21
24.542792611711661
31
0
0
LINE
5
195
100
AcDbEntity
8
0
100
AcDbLine
10
32.217884625224826
20
24.542792611711661
30
0
11
32.823883618144748
21
24.169793420427474
31
0
0
LINE
5
196
100
AcDbEntity
8
0
100
AcDbLine
10
29.817354763774631
20
25.345332437151118
30
0
11
30.221884335307834
21
25.280793481462638
31
0
0
CIRCLE
5
197
100
AcDbEntity
8
0
100
AcDbCircle
10
-2.4234617205992715
20
2.2259025212375549
30
0
40
12.5
210
0
220
0
230
1
0
CIRCLE
5
198
100
AcDbEntity
8
0
100
AcDbCircle
10
-2.4234617205992715
20
2.2259025212375549
30
0
40
50
210
0
220
0
230
1
0
LWPOLYLINE
5
199
100
AcDbEntity
8
0
100
AcDbPolyline
90
4
70
1
43
0.0
10
2.076538346456033
20
-44.558175960618875
10
-6.9234617876544196
20
-44.558175960618897
10
-6.9234617876544204
20
-40.55817596061889
10
2.0765383464560325
20
-40.55817596061889
0
LINE
5
200
100
AcDbEntity
8
0
100
AcDbLine
10
-5.9234617876544196
20
-44.558175960618883
30
0
11
-5.9234617876544178
21
-47.651447042774109
31
0
0
LINE
5
201
100
AcDbEntity
8
0
100
AcDbLine
10
1.0765383464560327
20
-44.558175960618875
30
0
11
1.0765383464560327
21
-47.651447042774095
31
0
0
LWPOLYLINE
5
202
100
AcDbEntity
8
0
100
AcDbPolyline
90
4
70
1
43
0.0
10
1.076538346456033
20
-40.55817596061889
10
-5.9234617876544204
20
-40.55817596061889
10
-5.9234617876544204
20
-34.55817596061889
10
1.0765383464560325
20
-34.55817596061889
0
LWPOLYLINE
5
203
100
AcDbEntity
8
0
100
AcDbPolyline
90
4
70
1
43
0.0
10
0.07653834645603208
20
-34.55817596061889
10
-4.9234616535439706
20
-34.55817596061889
10
-4.9234616535439679
20
-20.558175960618893
10
0.076538346456032358
20
-20.55817596061889
0
CIRCLE
5
204
100
AcDbEntity
8
0
100
AcDbCircle
10
-2.4234617205992715
20
2.2259025212375549
30
0
40
25
210
0
220
0
230
1
0
CIRCLE
5
205
100
AcDbEntity
8
0
100
AcDbCircle
10
-2.4234617205992715
20
2.2259025212375549
30
0
40
17
210
0
220
0
230
1
0
ARC
5
206
100
AcDbEntity
8
0
100
AcDbCircle
10
-36.974658468320484
20
7.5309660065314743
30
0
40
4.9958268111738331
210
0
220
0
230
1
100
AcDbArc
50
-8.4384002723305613
51
173.3966114716886
0
ARC
5
207
100
AcDbEntity
8
0
100
AcDbCircle
10
-33.186615382404575
20
-14.046207136518332
30
0
40
7.2506413989757945
210
0
220
0
230
1
100
AcDbArc
50
-198.54396351816845
51
73.384208871805654
0
LINE
5
208
100
AcDbEntity
8
0
100
AcDbLine
10
-32.032915457515287
20
6.797848319934503
30
0
11
-32.335116778583782
21
4.7607930236989553
31
0
0
LINE
5
209
100
AcDbEntity
8
0
100
AcDbLine
10
-41.937342796408963
20
8.1054656035620916
30
0
11
-42.288115893574016
21
5.7407930427724434
31
0
0
ARC
5
210
100
AcDbEntity
8
0
100
AcDbCircle
10
28.727404202251194
20
18.187243276231921
30
0
40
7.2503884826861142
210
0
220
0
230
1
100
AcDbArc
50
-26.069140268152481
51
246.8494349106729
0
LINE
5
211
100
AcDbEntity
8
0
100
AcDbLine
10
27.378883923320529
20
-1.1212069457834657
30
0
11
27.155004496825402
21
-2.6303229816882805
31
0
0
LINE
5
212
100
AcDbEntity
8
0
100
AcDbLine
10
37.331883038310764
20
-2.1012069648569516
30
0
11
37.036107332722175
21
-4.0951240028961253
31
0
0
ARC
5
213
100
AcDbEntity
8
0
100
AcDbCircle
10
32.095478015008624
20
-3.3632489804502406
30
0
40
4.9945429323944071
210
0
220
0
230
1
100
AcDbArc
50
171.56163780991406
51
351.57382602575433
0
ENDSEC
0
SECTION
2
OBJECTS
0
DICTIONARY
5
C
100
AcDbDictionary
3
ACAD_GROUP
350
D
3
ACAD_MLINESTYLE
350
17
0
DICTIONARY
5
D
100
AcDbDictionary
0
DICTIONARY
5
1A
330
C
100
AcDbDictionary
0
DICTIONARY
5
17
100
AcDbDictionary
0
ENDSEC
0
EOF
