G04 Layer: TopPasteMaskLayer*
G04 EasyEDA v6.4.25, 2021-11-16T21:36:29+01:00*
G04 969fc306525a459593755dfbefa048c4,10*
G04 Gerber Generator version 0.2*
G04 Scale: 100 percent, Rotated: No, Reflected: No *
G04 Dimensions in millimeters *
G04 leading zeros omitted , absolute positions ,4 integer and 5 decimal *
%FSLAX45Y45*%
%MOMM*%

%ADD13C,0.6300*%
%ADD17R,1.2500X0.7000*%

%LPD*%
G36*
X35458Y1009751D02*
G01*
X28397Y1009142D01*
X-53848Y911098D01*
X-53238Y904036D01*
X34848Y830122D01*
X41910Y830732D01*
X68529Y863244D01*
X34798Y891489D01*
X63703Y925982D01*
X98196Y897026D01*
X124155Y928776D01*
X123545Y935837D01*
G37*
G36*
X200152Y871524D02*
G01*
X193090Y870915D01*
X167132Y839216D01*
X200863Y810920D01*
X171907Y776427D01*
X137820Y805027D01*
X110845Y772871D01*
X111455Y765810D01*
X199542Y691896D01*
X206603Y692505D01*
X288848Y790600D01*
X288239Y797610D01*
G37*
G36*
X333451Y1036777D02*
G01*
X326390Y1036167D01*
X299770Y1003655D01*
X333502Y975410D01*
X304596Y940917D01*
X270103Y969873D01*
X244144Y938123D01*
X244754Y931062D01*
X332841Y857148D01*
X339902Y857758D01*
X422148Y955802D01*
X421538Y962863D01*
G37*
G36*
X168757Y1175004D02*
G01*
X161696Y1174394D01*
X79451Y1076299D01*
X80060Y1069289D01*
X168148Y995375D01*
X175209Y995984D01*
X201168Y1027684D01*
X167436Y1055979D01*
X196392Y1090472D01*
X230479Y1061872D01*
X257454Y1094028D01*
X256844Y1101090D01*
G37*
G36*
X1091387Y-705713D02*
G01*
X1086408Y-710692D01*
X1086916Y-752703D01*
X1130909Y-752703D01*
X1130909Y-797712D01*
X1085900Y-797712D01*
X1086408Y-838708D01*
X1091387Y-843686D01*
X1206398Y-843686D01*
X1211427Y-838708D01*
X1211427Y-710692D01*
X1206398Y-705713D01*
G37*
G36*
X876401Y-705713D02*
G01*
X871423Y-710692D01*
X871423Y-838708D01*
X876401Y-843686D01*
X991412Y-843686D01*
X996391Y-838708D01*
X995883Y-797712D01*
X951890Y-797712D01*
X951890Y-752703D01*
X996391Y-752703D01*
X996391Y-710692D01*
X991412Y-705713D01*
G37*
G36*
X15087Y-514400D02*
G01*
X-25908Y-514908D01*
X-30886Y-519887D01*
X-30886Y-634898D01*
X-25908Y-639927D01*
X102108Y-639927D01*
X107086Y-634898D01*
X107086Y-519887D01*
X102108Y-514908D01*
X60096Y-515416D01*
X60096Y-559409D01*
X15087Y-559409D01*
G37*
G36*
X-25908Y-299923D02*
G01*
X-30886Y-304901D01*
X-30886Y-419912D01*
X-25908Y-424891D01*
X15087Y-424383D01*
X15087Y-380390D01*
X60096Y-380390D01*
X60096Y-424891D01*
X102108Y-424891D01*
X107086Y-419912D01*
X107086Y-304901D01*
X102108Y-299923D01*
G37*
D13*
X-1008608Y-215900D02*
G01*
X-1170609Y-215900D01*
X-1008608Y-342900D02*
G01*
X-1170609Y-342900D01*
X-1008608Y-469900D02*
G01*
X-1170609Y-469900D01*
X-1008608Y-596900D02*
G01*
X-1170609Y-596900D01*
X-302590Y-215900D02*
G01*
X-464591Y-215900D01*
X-302590Y-342900D02*
G01*
X-464591Y-342900D01*
X-302590Y-469900D02*
G01*
X-464591Y-469900D01*
X-302590Y-596900D02*
G01*
X-464591Y-596900D01*
G36*
X1019794Y1261818D02*
G01*
X782091Y1339052D01*
X874826Y1624467D01*
X1112530Y1547230D01*
G37*
G36*
X522165Y1423509D02*
G01*
X284462Y1500743D01*
X377197Y1786155D01*
X614900Y1708922D01*
G37*
D17*
G01*
X1411300Y-781304D03*
G01*
X1411300Y-971295D03*
G01*
X1611299Y-876300D03*
G36*
X214906Y1823951D02*
G01*
X214906Y1673837D01*
X115084Y1673837D01*
X115084Y1823951D01*
G37*
G36*
X-115095Y1823951D02*
G01*
X-115095Y1673837D01*
X-214917Y1673837D01*
X-214917Y1823951D01*
G37*
G36*
X-115095Y2313825D02*
G01*
X-115095Y2163965D01*
X-214917Y2163965D01*
X-214917Y2313825D01*
G37*
G36*
X214906Y2313825D02*
G01*
X214906Y2163965D01*
X115084Y2163965D01*
X115084Y2313825D01*
G37*
G36*
X1805310Y367096D02*
G01*
X1661754Y323207D01*
X1632569Y418665D01*
X1776125Y462554D01*
G37*
G36*
X1708825Y682678D02*
G01*
X1565272Y638789D01*
X1536087Y734247D01*
X1679641Y778139D01*
G37*
G36*
X2177295Y825903D02*
G01*
X2033983Y782088D01*
X2004799Y877549D01*
X2148111Y921362D01*
G37*
G36*
X2273780Y510321D02*
G01*
X2130468Y466506D01*
X2101281Y561967D01*
X2244592Y605779D01*
G37*
G36*
X894420Y-1611287D02*
G01*
X801999Y-1492999D01*
X880661Y-1431541D01*
X973081Y-1549831D01*
G37*
G36*
X1154465Y-1408120D02*
G01*
X1062047Y-1289827D01*
X1140706Y-1228371D01*
X1233126Y-1346662D01*
G37*
G36*
X1456060Y-1794144D02*
G01*
X1363799Y-1676054D01*
X1442458Y-1614596D01*
X1534723Y-1732688D01*
G37*
G36*
X1196017Y-1997313D02*
G01*
X1103754Y-1879224D01*
X1182413Y-1817766D01*
X1274676Y-1935855D01*
G37*
G36*
X-1242369Y-1336390D02*
G01*
X-1154135Y-1214945D01*
X-1073376Y-1273619D01*
X-1161610Y-1395064D01*
G37*
G36*
X-975393Y-1530357D02*
G01*
X-887158Y-1408915D01*
X-806401Y-1467589D01*
X-894636Y-1589034D01*
G37*
G36*
X-1263335Y-1926676D02*
G01*
X-1175247Y-1805437D01*
X-1094491Y-1864111D01*
X-1182575Y-1985350D01*
G37*
G36*
X-1530309Y-1732706D02*
G01*
X-1442224Y-1611467D01*
X-1361467Y-1670141D01*
X-1449552Y-1791378D01*
G37*
G36*
X-1661642Y770168D02*
G01*
X-1519707Y721296D01*
X-1552206Y626912D01*
X-1694141Y675784D01*
G37*
G36*
X-1769082Y458144D02*
G01*
X-1627146Y409272D01*
X-1659643Y314888D01*
X-1801581Y363761D01*
G37*
G36*
X-2232266Y617634D02*
G01*
X-2090572Y568843D01*
X-2123069Y474459D01*
X-2264765Y523250D01*
G37*
G36*
X-2124829Y929655D02*
G01*
X-1983132Y880866D01*
X-2015632Y786483D01*
X-2157328Y835271D01*
G37*
G36*
X981410Y1134168D02*
G01*
X1053020Y1057379D01*
X1233299Y1225491D01*
X1161691Y1302280D01*
G37*
G36*
X1138270Y965956D02*
G01*
X1209880Y889167D01*
X1390159Y1057280D01*
X1318552Y1134069D01*
G37*
G36*
X1295128Y797745D02*
G01*
X1366738Y720956D01*
X1547017Y889071D01*
X1475412Y965860D01*
G37*
G36*
X1712757Y1187874D02*
G01*
X1471330Y1446773D01*
X1651609Y1614886D01*
X1893039Y1355989D01*
G37*
G36*
X553504Y271226D02*
G01*
X376100Y105793D01*
X205607Y288622D01*
X383011Y454055D01*
G37*
G36*
X995621Y683506D02*
G01*
X818215Y518076D01*
X647727Y700905D01*
X825131Y866335D01*
G37*
G36*
X841921Y-32783D02*
G01*
X661657Y-195094D01*
X494383Y-9319D01*
X674646Y152991D01*
G37*
G36*
X1291168Y371716D02*
G01*
X1110902Y209407D01*
X943627Y395183D01*
X1123891Y557491D01*
G37*
M02*
