G04 Layer: TopSilkLayer*
G04 EasyEDA v6.4.25, 2021-11-16T21:36:29+01:00*
G04 969fc306525a459593755dfbefa048c4,10*
G04 Gerber Generator version 0.2*
G04 Scale: 100 percent, Rotated: No, Reflected: No *
G04 Dimensions in millimeters *
G04 leading zeros omitted , absolute positions ,4 integer and 5 decimal *
%FSLAX45Y45*%
%MOMM*%

%ADD32C,0.2540*%
%ADD33C,0.1524*%
%ADD34C,0.2032*%
%ADD35C,0.3302*%
%ADD36C,0.3000*%

%LPD*%
G36*
X-508812Y489204D02*
G01*
X-528878Y489102D01*
X-500888Y480263D01*
X-487426Y475234D01*
X-481076Y472541D01*
X-469087Y466598D01*
X-463397Y463397D01*
X-457962Y460044D01*
X-447649Y452678D01*
X-442722Y448716D01*
X-433425Y440080D01*
X-428955Y435457D01*
X-424637Y430580D01*
X-416356Y420065D01*
X-412343Y414426D01*
X-404571Y402234D01*
X-400253Y395020D01*
X-385622Y402691D01*
X-380187Y405028D01*
X-374548Y407162D01*
X-368706Y408990D01*
X-356565Y411937D01*
X-350266Y413054D01*
X-337261Y414477D01*
X-330657Y414832D01*
X-317195Y414731D01*
X-310388Y414324D01*
X-296722Y412699D01*
X-289915Y411530D01*
X-276352Y408381D01*
X-256286Y401929D01*
X-250799Y400405D01*
X-247040Y399643D01*
X-245668Y399897D01*
X-246837Y401574D01*
X-249986Y404215D01*
X-254711Y407517D01*
X-267309Y415137D01*
X-281330Y422554D01*
X-293268Y427685D01*
X-304038Y431342D01*
X-309422Y432816D01*
X-320243Y435101D01*
X-331165Y436422D01*
X-336600Y436778D01*
X-347624Y436778D01*
X-353161Y436473D01*
X-364337Y435101D01*
X-375666Y432816D01*
X-393090Y428650D01*
X-401726Y440283D01*
X-405231Y444347D01*
X-413004Y452170D01*
X-421640Y459435D01*
X-431038Y466140D01*
X-441096Y472185D01*
X-451662Y477469D01*
X-462635Y481888D01*
X-468223Y483768D01*
X-473913Y485393D01*
X-481228Y486918D01*
X-490270Y488137D01*
X-499872Y488950D01*
G37*
G36*
X-517651Y457911D02*
G01*
X-517651Y426516D01*
X-463296Y426516D01*
X-456844Y426212D01*
X-451205Y425399D01*
X-446582Y424078D01*
X-443230Y422300D01*
X-440486Y419862D01*
X-438861Y417068D01*
X-438200Y413461D01*
X-438302Y408635D01*
X-438962Y404571D01*
X-440232Y401116D01*
X-442163Y398373D01*
X-444906Y396138D01*
X-448462Y394512D01*
X-452882Y393395D01*
X-458266Y392734D01*
X-464616Y392480D01*
X-477723Y392480D01*
X-477723Y426516D01*
X-517651Y426516D01*
X-517651Y361035D01*
X-460756Y361035D01*
X-453694Y360781D01*
X-447446Y360121D01*
X-442569Y359054D01*
X-439674Y357784D01*
X-437946Y355904D01*
X-436321Y353364D01*
X-434898Y350418D01*
X-433984Y347421D01*
X-433476Y343662D01*
X-434035Y340410D01*
X-435711Y337210D01*
X-438708Y333654D01*
X-442569Y330200D01*
X-446785Y328168D01*
X-452628Y327202D01*
X-461416Y326999D01*
X-477723Y326999D01*
X-477723Y361035D01*
X-517651Y361035D01*
X-517651Y295554D01*
X-467258Y295656D01*
X-450951Y296062D01*
X-437083Y296824D01*
X-427380Y297789D01*
X-424637Y298348D01*
X-419811Y300177D01*
X-415035Y302717D01*
X-410514Y305917D01*
X-406298Y309575D01*
X-402539Y313690D01*
X-399288Y318058D01*
X-396798Y322630D01*
X-395020Y327202D01*
X-393801Y334111D01*
X-393954Y341274D01*
X-395224Y348437D01*
X-397662Y355346D01*
X-401066Y361746D01*
X-405333Y367385D01*
X-410311Y372008D01*
X-416001Y375361D01*
X-423265Y378561D01*
X-405079Y389839D01*
X-410819Y400812D01*
X-415696Y408686D01*
X-422401Y417728D01*
X-430276Y427177D01*
X-438658Y436219D01*
X-446887Y444195D01*
X-454304Y450240D01*
X-460806Y454558D01*
X-463804Y455879D01*
X-467156Y456844D01*
X-471220Y457403D01*
X-476351Y457758D01*
X-482904Y457911D01*
G37*
G36*
X-626922Y457911D02*
G01*
X-644296Y407263D01*
X-661582Y355142D01*
X-619963Y355142D01*
X-617626Y363829D01*
X-612089Y381965D01*
X-604164Y406806D01*
X-588721Y358241D01*
X-588314Y355498D01*
X-589991Y353974D01*
X-594715Y353314D01*
X-603554Y353161D01*
X-609904Y353314D01*
X-615137Y353771D01*
X-618642Y354380D01*
X-619963Y355142D01*
X-661582Y355142D01*
X-678027Y303834D01*
X-679805Y297434D01*
X-678230Y296672D01*
X-673811Y296164D01*
X-667308Y295960D01*
X-638911Y296875D01*
X-631494Y321919D01*
X-576529Y320446D01*
X-569163Y295554D01*
X-536295Y295656D01*
X-530301Y296316D01*
X-528421Y298094D01*
X-529031Y301447D01*
X-580491Y457911D01*
G37*
G36*
X-777138Y457911D02*
G01*
X-777138Y295554D01*
X-689813Y295554D01*
X-689813Y326999D01*
X-737209Y326999D01*
X-737209Y457911D01*
G37*
G36*
X-924356Y457911D02*
G01*
X-924356Y426516D01*
X-870000Y426516D01*
X-863498Y426212D01*
X-857859Y425399D01*
X-853287Y424078D01*
X-849934Y422300D01*
X-847191Y419862D01*
X-845566Y417068D01*
X-844905Y413461D01*
X-845007Y408635D01*
X-845616Y404571D01*
X-846937Y401116D01*
X-848868Y398373D01*
X-851611Y396138D01*
X-855167Y394512D01*
X-859586Y393395D01*
X-864920Y392734D01*
X-871321Y392480D01*
X-884428Y392480D01*
X-884428Y426516D01*
X-924356Y426516D01*
X-924356Y361035D01*
X-866952Y361035D01*
X-858062Y360832D01*
X-851966Y360019D01*
X-847750Y358394D01*
X-844499Y355803D01*
X-840689Y349961D01*
X-839724Y343814D01*
X-841552Y337769D01*
X-846124Y332435D01*
X-850036Y329793D01*
X-854608Y328117D01*
X-860552Y327253D01*
X-868578Y326999D01*
X-884428Y326999D01*
X-884428Y361035D01*
X-924356Y361035D01*
X-924356Y295554D01*
X-873963Y295656D01*
X-857605Y296062D01*
X-843787Y296824D01*
X-834085Y297789D01*
X-831342Y298348D01*
X-826008Y300278D01*
X-821131Y302768D01*
X-816711Y305816D01*
X-812749Y309321D01*
X-809294Y313283D01*
X-806399Y317601D01*
X-804113Y322224D01*
X-802386Y327152D01*
X-801319Y332282D01*
X-800912Y337566D01*
X-801217Y343001D01*
X-802233Y348437D01*
X-803910Y353364D01*
X-806399Y358292D01*
X-809447Y363067D01*
X-812952Y367436D01*
X-816660Y371195D01*
X-820419Y374192D01*
X-824077Y376123D01*
X-827430Y376834D01*
X-830224Y377088D01*
X-830834Y377799D01*
X-828954Y379272D01*
X-824534Y381812D01*
X-816102Y387400D01*
X-810361Y393547D01*
X-806907Y401015D01*
X-805180Y410413D01*
X-804976Y416001D01*
X-805332Y421284D01*
X-806246Y426262D01*
X-807770Y430885D01*
X-809853Y435203D01*
X-812495Y439166D01*
X-815695Y442772D01*
X-819403Y446024D01*
X-823671Y448919D01*
X-828446Y451358D01*
X-833729Y453440D01*
X-839520Y455117D01*
X-846785Y456133D01*
X-858266Y457047D01*
X-872388Y457606D01*
X-887577Y457860D01*
G37*
G36*
X-1040485Y457911D02*
G01*
X-1061466Y392379D01*
X-1074355Y353161D01*
X-1033678Y353161D01*
X-1022756Y387705D01*
X-1019962Y395630D01*
X-1017828Y400964D01*
X-1016660Y402945D01*
X-1015492Y400964D01*
X-1010615Y387705D01*
X-999642Y353161D01*
X-1074355Y353161D01*
X-1093876Y295554D01*
X-1052017Y295554D01*
X-1043736Y321767D01*
X-989634Y321767D01*
X-981354Y295554D01*
X-948690Y295706D01*
X-942492Y296316D01*
X-940206Y297688D01*
X-940511Y300126D01*
X-992987Y457911D01*
G37*
G36*
X-1188821Y457911D02*
G01*
X-1188821Y295554D01*
X-1148943Y295554D01*
X-1148943Y360832D01*
X-1102766Y362356D01*
X-1101242Y392480D01*
X-1148943Y392480D01*
X-1148943Y426516D01*
X-1086561Y426516D01*
X-1086561Y457911D01*
G37*
G36*
X-1515668Y457911D02*
G01*
X-1515668Y395833D01*
X-1494536Y381101D01*
X-1488440Y377088D01*
X-1483664Y374548D01*
X-1479702Y373481D01*
X-1475943Y373786D01*
X-1471777Y375462D01*
X-1466697Y378409D01*
X-1442110Y394004D01*
X-1431493Y387807D01*
X-1426413Y384505D01*
X-1423111Y381508D01*
X-1421384Y378460D01*
X-1420876Y375005D01*
X-1420571Y370382D01*
X-1419606Y365963D01*
X-1418031Y361746D01*
X-1415897Y357733D01*
X-1413154Y353974D01*
X-1409903Y350418D01*
X-1406144Y347167D01*
X-1401826Y344220D01*
X-1397050Y341579D01*
X-1391869Y339242D01*
X-1386179Y337312D01*
X-1380134Y335737D01*
X-1373378Y334518D01*
X-1366774Y333908D01*
X-1360322Y333857D01*
X-1354074Y334314D01*
X-1348079Y335280D01*
X-1342390Y336753D01*
X-1337005Y338683D01*
X-1332026Y341020D01*
X-1327505Y343814D01*
X-1323390Y346964D01*
X-1319834Y350520D01*
X-1316786Y354380D01*
X-1314348Y358597D01*
X-1312570Y363118D01*
X-1311452Y367893D01*
X-1311097Y372922D01*
X-1311452Y378968D01*
X-1312621Y383895D01*
X-1314958Y388467D01*
X-1318615Y393395D01*
X-1322832Y397916D01*
X-1327404Y401675D01*
X-1332484Y404774D01*
X-1338072Y407212D01*
X-1344269Y409041D01*
X-1351229Y410260D01*
X-1359001Y410972D01*
X-1377797Y411276D01*
X-1384960Y411988D01*
X-1389888Y413359D01*
X-1393444Y415493D01*
X-1396187Y418287D01*
X-1395679Y420878D01*
X-1390751Y424688D01*
X-1361592Y442214D01*
X-1291894Y399694D01*
X-1243888Y371043D01*
X-1206296Y392836D01*
X-1206296Y457911D01*
G37*
G36*
X-1514449Y384606D02*
G01*
X-1514805Y378206D01*
X-1515110Y360375D01*
X-1515211Y289509D01*
X-1514449Y134518D01*
X-1367231Y134518D01*
X-1366570Y143662D01*
X-1366570Y148996D01*
X-1368247Y152857D01*
X-1372870Y156667D01*
X-1397203Y171196D01*
X-1398168Y198983D01*
X-1397457Y205079D01*
X-1395323Y209194D01*
X-1387652Y216916D01*
X-1384858Y221030D01*
X-1382725Y225552D01*
X-1381150Y230479D01*
X-1380185Y235712D01*
X-1379778Y241198D01*
X-1379931Y246888D01*
X-1380591Y252729D01*
X-1381760Y258622D01*
X-1383436Y264515D01*
X-1385570Y270357D01*
X-1388110Y276047D01*
X-1391107Y281635D01*
X-1394510Y286918D01*
X-1398320Y291896D01*
X-1402486Y296570D01*
X-1406956Y300736D01*
X-1411782Y304495D01*
X-1416913Y307644D01*
X-1422349Y310184D01*
X-1427530Y311912D01*
X-1432407Y312928D01*
X-1437030Y313182D01*
X-1441348Y312775D01*
X-1445361Y311708D01*
X-1449019Y310032D01*
X-1452372Y307797D01*
X-1455318Y305054D01*
X-1457909Y301752D01*
X-1460093Y298043D01*
X-1461820Y293878D01*
X-1463141Y289356D01*
X-1464005Y284429D01*
X-1464411Y279196D01*
X-1464310Y273710D01*
X-1463700Y267919D01*
X-1462532Y261975D01*
X-1460855Y255828D01*
X-1458620Y249529D01*
X-1455775Y243128D01*
X-1451610Y235559D01*
X-1449730Y232867D01*
X-1448358Y231444D01*
X-1447393Y229666D01*
X-1446580Y226110D01*
X-1446022Y221335D01*
X-1445818Y215696D01*
X-1445818Y201676D01*
X-1483258Y223520D01*
X-1483258Y364998D01*
X-1504137Y378612D01*
X-1512773Y383844D01*
G37*
G36*
X-1207566Y384352D02*
G01*
X-1241247Y365150D01*
X-1241247Y317398D01*
X-1260348Y308203D01*
X-1264767Y306882D01*
X-1268018Y307441D01*
X-1274978Y311759D01*
X-1278686Y313232D01*
X-1282649Y314045D01*
X-1286764Y314198D01*
X-1290980Y313791D01*
X-1295247Y312826D01*
X-1299616Y311251D01*
X-1303934Y309168D01*
X-1308252Y306578D01*
X-1312468Y303479D01*
X-1316532Y299923D01*
X-1320495Y295960D01*
X-1324203Y291490D01*
X-1327708Y286664D01*
X-1330858Y281482D01*
X-1333754Y275894D01*
X-1337919Y266344D01*
X-1340154Y258825D01*
X-1340916Y250952D01*
X-1340612Y240385D01*
X-1339850Y229971D01*
X-1338478Y223367D01*
X-1335938Y218694D01*
X-1331518Y214071D01*
X-1327658Y211074D01*
X-1323441Y208889D01*
X-1318920Y207517D01*
X-1314145Y206959D01*
X-1309217Y207111D01*
X-1304239Y207975D01*
X-1299210Y209550D01*
X-1294231Y211734D01*
X-1289354Y214579D01*
X-1284630Y217932D01*
X-1280160Y221894D01*
X-1275994Y226364D01*
X-1272184Y231292D01*
X-1268780Y236626D01*
X-1265936Y242417D01*
X-1261567Y253949D01*
X-1258925Y258064D01*
X-1255420Y261416D01*
X-1250746Y264363D01*
X-1241247Y269494D01*
X-1241247Y223316D01*
X-1332382Y168148D01*
X-1344117Y160578D01*
X-1351432Y155295D01*
X-1353769Y153263D01*
X-1355344Y151485D01*
X-1356410Y149910D01*
X-1356969Y148437D01*
X-1357274Y145389D01*
X-1357223Y134518D01*
X-1246784Y133604D01*
X-1230122Y133756D01*
X-1218590Y134162D01*
X-1211478Y134823D01*
X-1209344Y135280D01*
X-1208024Y135839D01*
X-1207465Y136448D01*
X-1207109Y143713D01*
X-1206855Y162052D01*
X-1206754Y232664D01*
G37*
G36*
X-722223Y261518D02*
G01*
X-722223Y135788D01*
X-716026Y135788D01*
X-712470Y136194D01*
X-710590Y138480D01*
X-709879Y144475D01*
X-709777Y176072D01*
X-692099Y155956D01*
X-683006Y145948D01*
X-676503Y139801D01*
X-671525Y136652D01*
X-667156Y135788D01*
X-664311Y135940D01*
X-662025Y136347D01*
X-660450Y136956D01*
X-659892Y137718D01*
X-661517Y140157D01*
X-665886Y145440D01*
X-680415Y161290D01*
X-700938Y182930D01*
X-672439Y213156D01*
X-665886Y220471D01*
X-661517Y225755D01*
X-659892Y228193D01*
X-660501Y228904D01*
X-662279Y229463D01*
X-664819Y229819D01*
X-667969Y229920D01*
X-672795Y229108D01*
X-677722Y226212D01*
X-684022Y220268D01*
X-692912Y210312D01*
X-709777Y190855D01*
X-709777Y261518D01*
G37*
G36*
X-1021638Y261518D02*
G01*
X-1021638Y180340D01*
X-1008634Y180340D01*
X-1008278Y187299D01*
X-1007059Y193548D01*
X-1005230Y199186D01*
X-1002792Y204266D01*
X-999845Y208686D01*
X-996391Y212394D01*
X-992581Y215392D01*
X-988364Y217576D01*
X-983894Y218998D01*
X-979220Y219557D01*
X-974344Y219202D01*
X-969365Y217982D01*
X-964387Y215747D01*
X-960119Y213106D01*
X-956513Y210210D01*
X-953465Y206908D01*
X-951026Y203301D01*
X-949147Y199288D01*
X-947826Y194818D01*
X-947064Y189941D01*
X-946810Y184556D01*
X-947115Y178765D01*
X-947978Y173380D01*
X-949401Y168351D01*
X-951331Y163728D01*
X-953769Y159613D01*
X-956716Y155956D01*
X-960170Y152857D01*
X-964031Y150317D01*
X-969822Y147929D01*
X-975512Y146761D01*
X-981151Y146862D01*
X-986536Y148082D01*
X-991565Y150266D01*
X-996137Y153466D01*
X-1000201Y157480D01*
X-1003553Y162306D01*
X-1006144Y167741D01*
X-1007871Y173786D01*
X-1008634Y180340D01*
X-1021638Y180340D01*
X-1021638Y135788D01*
X-1015441Y135788D01*
X-1012190Y136093D01*
X-1010310Y137312D01*
X-1009396Y139801D01*
X-1009192Y144119D01*
X-1009192Y152450D01*
X-1003553Y147066D01*
X-997153Y141732D01*
X-990853Y138226D01*
X-983843Y136347D01*
X-975563Y135788D01*
X-970584Y136042D01*
X-966012Y136702D01*
X-961694Y137871D01*
X-957681Y139547D01*
X-953871Y141732D01*
X-950264Y144424D01*
X-946810Y147726D01*
X-943457Y151536D01*
X-940257Y156006D01*
X-937666Y160731D01*
X-935583Y165709D01*
X-934059Y170840D01*
X-933043Y176072D01*
X-932535Y181406D01*
X-932586Y186690D01*
X-933094Y191973D01*
X-934110Y197104D01*
X-935583Y202082D01*
X-937564Y206857D01*
X-940003Y211328D01*
X-942898Y215493D01*
X-946251Y219252D01*
X-950061Y222605D01*
X-954278Y225399D01*
X-959205Y227736D01*
X-964488Y229108D01*
X-970737Y229666D01*
X-978611Y229463D01*
X-986840Y228701D01*
X-992632Y227329D01*
X-997203Y224891D01*
X-1001674Y220979D01*
X-1009192Y213410D01*
X-1009294Y251307D01*
X-1010005Y258470D01*
X-1011834Y261112D01*
X-1015441Y261518D01*
G37*
G36*
X-1070406Y258724D02*
G01*
X-1073607Y257657D01*
X-1076756Y254762D01*
X-1078484Y250393D01*
X-1077417Y246227D01*
X-1074013Y243078D01*
X-1068832Y241858D01*
X-1064564Y243128D01*
X-1062177Y246278D01*
X-1061974Y250545D01*
X-1064158Y255117D01*
X-1067206Y257860D01*
G37*
G36*
X-1095654Y258419D02*
G01*
X-1097889Y257657D01*
X-1099769Y256235D01*
X-1101242Y254203D01*
X-1102258Y249174D01*
X-1100683Y244602D01*
X-1097280Y241554D01*
X-1092606Y240995D01*
X-1088593Y244144D01*
X-1087424Y249834D01*
X-1088999Y255422D01*
X-1093216Y258419D01*
G37*
G36*
X-1186332Y253644D02*
G01*
X-1186332Y135788D01*
X-1145692Y135940D01*
X-1137818Y136601D01*
X-1134567Y138176D01*
X-1133957Y141020D01*
X-1134465Y143865D01*
X-1137056Y145491D01*
X-1143050Y146151D01*
X-1173886Y146304D01*
X-1173886Y253644D01*
G37*
G36*
X-784098Y230073D02*
G01*
X-789990Y229514D01*
X-795528Y228295D01*
X-800455Y226567D01*
X-804621Y224180D01*
X-809802Y220217D01*
X-814019Y216357D01*
X-817270Y212394D01*
X-819708Y208076D01*
X-821436Y203200D01*
X-822553Y197510D01*
X-823112Y190855D01*
X-823315Y182930D01*
X-823112Y175056D01*
X-822553Y168351D01*
X-821436Y162712D01*
X-819708Y157835D01*
X-817219Y153466D01*
X-813917Y149453D01*
X-809650Y145542D01*
X-804367Y141478D01*
X-799338Y138328D01*
X-794359Y136601D01*
X-787958Y136042D01*
X-778764Y136347D01*
X-768959Y137109D01*
X-762660Y138734D01*
X-757732Y142087D01*
X-751941Y148234D01*
X-745286Y156311D01*
X-742696Y161340D01*
X-744169Y163880D01*
X-749554Y164592D01*
X-752957Y164287D01*
X-755497Y163372D01*
X-757326Y161747D01*
X-758444Y159359D01*
X-761644Y154381D01*
X-767537Y150215D01*
X-775106Y147370D01*
X-783539Y146304D01*
X-787958Y146862D01*
X-792378Y148539D01*
X-796645Y151130D01*
X-800658Y154533D01*
X-804214Y158597D01*
X-807212Y163169D01*
X-809498Y168148D01*
X-810920Y173329D01*
X-811631Y178816D01*
X-811784Y184150D01*
X-811377Y189230D01*
X-810361Y194106D01*
X-808837Y198729D01*
X-806754Y203047D01*
X-804113Y207111D01*
X-800912Y210921D01*
X-796645Y214680D01*
X-792022Y217474D01*
X-787146Y219252D01*
X-782167Y220065D01*
X-777240Y219862D01*
X-772414Y218643D01*
X-767892Y216458D01*
X-763778Y213207D01*
X-759104Y207873D01*
X-757682Y205587D01*
X-756615Y202946D01*
X-754989Y202082D01*
X-752602Y201523D01*
X-749706Y201269D01*
X-746810Y201422D01*
X-744423Y201879D01*
X-742797Y202488D01*
X-742238Y203250D01*
X-744118Y208889D01*
X-748792Y215798D01*
X-754837Y222199D01*
X-760882Y226314D01*
X-766216Y228193D01*
X-772007Y229463D01*
X-778052Y230073D01*
G37*
G36*
X-1112824Y230073D02*
G01*
X-1115364Y229768D01*
X-1117701Y228904D01*
X-1119530Y227634D01*
X-1120597Y226060D01*
X-1121105Y222097D01*
X-1121308Y203606D01*
X-1120394Y179578D01*
X-1119530Y169722D01*
X-1118311Y161696D01*
X-1116634Y155194D01*
X-1114450Y149961D01*
X-1111707Y145796D01*
X-1108252Y142494D01*
X-1104087Y139801D01*
X-1098346Y137414D01*
X-1091996Y136093D01*
X-1085392Y135788D01*
X-1078788Y136398D01*
X-1072489Y137922D01*
X-1066800Y140309D01*
X-1062075Y143510D01*
X-1058519Y147421D01*
X-1057808Y147929D01*
X-1057198Y147269D01*
X-1056792Y145592D01*
X-1056335Y139395D01*
X-1055420Y137210D01*
X-1053490Y136093D01*
X-1050340Y135788D01*
X-1044092Y135788D01*
X-1044092Y230073D01*
X-1052068Y230022D01*
X-1053592Y229514D01*
X-1054658Y228244D01*
X-1055471Y225755D01*
X-1055979Y221691D01*
X-1056690Y207111D01*
X-1057859Y161544D01*
X-1065987Y153924D01*
X-1070203Y150520D01*
X-1074470Y148031D01*
X-1078738Y146608D01*
X-1083056Y146100D01*
X-1087272Y146608D01*
X-1091387Y148082D01*
X-1095349Y150520D01*
X-1099210Y153924D01*
X-1106525Y161594D01*
X-1106525Y230073D01*
G37*
G36*
X-877112Y229870D02*
G01*
X-883056Y229666D01*
X-888695Y229006D01*
X-893876Y227939D01*
X-898144Y226415D01*
X-902309Y224129D01*
X-906068Y221284D01*
X-909421Y217982D01*
X-912368Y214274D01*
X-914908Y210210D01*
X-917041Y205790D01*
X-918768Y201168D01*
X-920038Y196291D01*
X-921108Y189585D01*
X-909370Y189585D01*
X-908354Y193090D01*
X-905916Y199593D01*
X-903782Y204216D01*
X-901192Y208178D01*
X-898194Y211632D01*
X-894791Y214477D01*
X-891032Y216712D01*
X-886866Y218287D01*
X-882396Y219303D01*
X-877620Y219608D01*
X-871626Y219252D01*
X-866952Y217982D01*
X-862736Y215239D01*
X-857961Y210718D01*
X-854405Y206502D01*
X-851763Y202387D01*
X-850087Y198475D01*
X-849528Y195021D01*
X-849528Y188214D01*
X-891082Y188315D01*
X-907034Y189026D01*
X-909370Y189585D01*
X-921108Y189585D01*
X-921410Y186232D01*
X-921410Y181102D01*
X-921003Y175971D01*
X-920191Y170891D01*
X-918921Y165963D01*
X-917244Y161188D01*
X-915111Y156616D01*
X-912520Y152349D01*
X-909523Y148386D01*
X-906068Y144830D01*
X-902157Y141732D01*
X-897382Y139090D01*
X-891743Y137210D01*
X-885545Y135991D01*
X-879043Y135585D01*
X-872540Y135839D01*
X-866292Y136855D01*
X-860602Y138582D01*
X-855675Y141071D01*
X-850137Y145542D01*
X-844905Y151079D01*
X-841044Y156514D01*
X-839520Y160578D01*
X-841451Y162356D01*
X-846328Y161493D01*
X-852525Y158597D01*
X-862736Y150876D01*
X-867054Y148488D01*
X-871575Y146913D01*
X-876096Y146100D01*
X-880668Y146100D01*
X-885139Y146862D01*
X-889457Y148386D01*
X-893521Y150571D01*
X-897280Y153517D01*
X-900633Y157124D01*
X-903579Y161391D01*
X-905916Y166268D01*
X-908354Y172821D01*
X-909370Y176326D01*
X-906526Y176885D01*
X-887374Y177596D01*
X-862177Y177749D01*
X-847140Y178054D01*
X-842568Y178511D01*
X-839520Y179120D01*
X-837590Y180035D01*
X-836472Y181254D01*
X-835812Y182829D01*
X-835101Y188010D01*
X-835609Y193903D01*
X-837285Y200152D01*
X-839927Y206451D01*
X-843381Y212547D01*
X-847496Y218084D01*
X-852119Y222758D01*
X-857097Y226212D01*
X-860958Y227787D01*
X-865784Y228904D01*
X-871270Y229616D01*
G37*
G36*
X709422Y-983487D02*
G01*
X709422Y-1104900D01*
X721614Y-1104900D01*
X721614Y-1083056D01*
X737616Y-1064260D01*
X762508Y-1104900D01*
X775970Y-1104900D01*
X744982Y-1055624D01*
X772160Y-1022603D01*
X758444Y-1022603D01*
X722122Y-1067562D01*
X721614Y-1067562D01*
X721614Y-983487D01*
G37*
G36*
X179578Y-983487D02*
G01*
X179578Y-1087374D01*
X192024Y-1087374D01*
X192024Y-1042924D01*
X198018Y-1037742D01*
X203809Y-1033983D01*
X209448Y-1031748D01*
X214884Y-1030986D01*
X220624Y-1031595D01*
X225399Y-1033322D01*
X229362Y-1036066D01*
X232511Y-1039774D01*
X234848Y-1044346D01*
X236474Y-1049731D01*
X237439Y-1055827D01*
X237744Y-1062482D01*
X237286Y-1069898D01*
X235915Y-1076553D01*
X233679Y-1082344D01*
X230733Y-1087170D01*
X227075Y-1091082D01*
X222859Y-1093927D01*
X218084Y-1095654D01*
X212852Y-1096264D01*
X208330Y-1095806D01*
X203200Y-1094282D01*
X197713Y-1091539D01*
X192024Y-1087374D01*
X179578Y-1087374D01*
X179578Y-1104900D01*
X189230Y-1104900D01*
X190754Y-1096264D01*
X191008Y-1096264D01*
X196799Y-1100734D01*
X202844Y-1104087D01*
X208991Y-1106170D01*
X214884Y-1106932D01*
X219608Y-1106576D01*
X224129Y-1105611D01*
X228498Y-1103934D01*
X232613Y-1101648D01*
X236474Y-1098753D01*
X239928Y-1095298D01*
X243027Y-1091184D01*
X245668Y-1086561D01*
X247802Y-1081328D01*
X249377Y-1075588D01*
X250342Y-1069289D01*
X250698Y-1062482D01*
X250444Y-1056335D01*
X249732Y-1050544D01*
X248564Y-1045210D01*
X246938Y-1040333D01*
X244856Y-1035913D01*
X242316Y-1032002D01*
X239318Y-1028598D01*
X235915Y-1025804D01*
X232054Y-1023569D01*
X227787Y-1021892D01*
X223062Y-1020927D01*
X217932Y-1020571D01*
X210820Y-1021486D01*
X203911Y-1024026D01*
X197408Y-1027734D01*
X191262Y-1032256D01*
X192024Y-1017269D01*
X192024Y-983487D01*
G37*
G36*
X417322Y-991362D02*
G01*
X410159Y-991920D01*
X403555Y-993546D01*
X397662Y-996137D01*
X392633Y-999591D01*
X388467Y-1003858D01*
X385368Y-1008837D01*
X383438Y-1014425D01*
X382778Y-1020571D01*
X383336Y-1026261D01*
X384860Y-1031240D01*
X387248Y-1035507D01*
X390296Y-1039164D01*
X393852Y-1042212D01*
X397662Y-1044803D01*
X401675Y-1046987D01*
X421640Y-1055878D01*
X429107Y-1059434D01*
X435152Y-1063498D01*
X439216Y-1068882D01*
X440690Y-1076452D01*
X440283Y-1080566D01*
X439013Y-1084275D01*
X436981Y-1087577D01*
X434187Y-1090371D01*
X430733Y-1092657D01*
X426567Y-1094333D01*
X421741Y-1095400D01*
X416306Y-1095756D01*
X407517Y-1094740D01*
X399237Y-1091895D01*
X391718Y-1087374D01*
X385064Y-1081532D01*
X377444Y-1090168D01*
X381203Y-1093876D01*
X385318Y-1097178D01*
X389737Y-1100074D01*
X394462Y-1102461D01*
X399440Y-1104392D01*
X404723Y-1105763D01*
X410260Y-1106627D01*
X416051Y-1106932D01*
X424281Y-1106322D01*
X431698Y-1104493D01*
X438099Y-1101648D01*
X443534Y-1097889D01*
X447852Y-1093266D01*
X451002Y-1087983D01*
X452983Y-1082040D01*
X453643Y-1075690D01*
X453186Y-1069797D01*
X451815Y-1064717D01*
X449681Y-1060297D01*
X446836Y-1056538D01*
X443433Y-1053236D01*
X439521Y-1050391D01*
X435152Y-1047902D01*
X430530Y-1045718D01*
X407720Y-1035964D01*
X401777Y-1032154D01*
X397408Y-1026871D01*
X395732Y-1019556D01*
X397306Y-1012494D01*
X401675Y-1007160D01*
X408482Y-1003757D01*
X417322Y-1002537D01*
X424891Y-1003300D01*
X431596Y-1005382D01*
X437591Y-1008735D01*
X442976Y-1013206D01*
X449834Y-1005078D01*
X443433Y-999490D01*
X435762Y-995171D01*
X427024Y-992378D01*
G37*
G36*
X631190Y-995680D02*
G01*
X625602Y-995883D01*
X620166Y-996543D01*
X614781Y-997610D01*
X609549Y-999083D01*
X604469Y-1001014D01*
X599592Y-1003249D01*
X594868Y-1005941D01*
X590397Y-1008938D01*
X586130Y-1012342D01*
X582117Y-1016050D01*
X578408Y-1020114D01*
X575005Y-1024534D01*
X571906Y-1029258D01*
X569163Y-1034287D01*
X566775Y-1039621D01*
X564794Y-1045210D01*
X563219Y-1051102D01*
X562051Y-1057300D01*
X561340Y-1063701D01*
X561086Y-1070356D01*
X561390Y-1077468D01*
X562254Y-1084173D01*
X563676Y-1090472D01*
X565658Y-1096314D01*
X568096Y-1101699D01*
X571042Y-1106678D01*
X574395Y-1111199D01*
X578205Y-1115263D01*
X582371Y-1118870D01*
X586943Y-1122019D01*
X591820Y-1124661D01*
X597001Y-1126845D01*
X602437Y-1128572D01*
X608177Y-1129792D01*
X614121Y-1130554D01*
X620268Y-1130808D01*
X628853Y-1130300D01*
X637082Y-1128674D01*
X644956Y-1125982D01*
X652526Y-1122172D01*
X648970Y-1114552D01*
X642772Y-1117650D01*
X636066Y-1120089D01*
X628904Y-1121613D01*
X621284Y-1122172D01*
X615899Y-1121968D01*
X610717Y-1121308D01*
X605739Y-1120190D01*
X601014Y-1118666D01*
X596544Y-1116736D01*
X592378Y-1114399D01*
X588467Y-1111656D01*
X584911Y-1108506D01*
X581710Y-1105001D01*
X578866Y-1101090D01*
X576376Y-1096822D01*
X574294Y-1092149D01*
X572668Y-1087170D01*
X571449Y-1081836D01*
X570738Y-1076147D01*
X570484Y-1070102D01*
X570839Y-1062736D01*
X571804Y-1055725D01*
X573379Y-1049121D01*
X575564Y-1042873D01*
X578256Y-1036980D01*
X581406Y-1031595D01*
X585012Y-1026566D01*
X588975Y-1022045D01*
X593344Y-1017981D01*
X598017Y-1014374D01*
X602945Y-1011275D01*
X608076Y-1008735D01*
X613460Y-1006703D01*
X618947Y-1005230D01*
X624535Y-1004366D01*
X630174Y-1004062D01*
X637489Y-1004468D01*
X644245Y-1005636D01*
X650392Y-1007618D01*
X655980Y-1010208D01*
X660908Y-1013510D01*
X665226Y-1017473D01*
X668883Y-1021943D01*
X671931Y-1027023D01*
X674319Y-1032560D01*
X676046Y-1038555D01*
X677062Y-1045006D01*
X677418Y-1051814D01*
X676859Y-1059840D01*
X675284Y-1066952D01*
X672846Y-1073099D01*
X669747Y-1078179D01*
X666140Y-1082243D01*
X662178Y-1085189D01*
X658114Y-1087018D01*
X654050Y-1087628D01*
X648106Y-1086358D01*
X644499Y-1082598D01*
X643280Y-1076147D01*
X644652Y-1067054D01*
X651256Y-1033526D01*
X642620Y-1033526D01*
X641096Y-1040384D01*
X640842Y-1040384D01*
X638098Y-1036777D01*
X634847Y-1034237D01*
X631139Y-1032764D01*
X627126Y-1032256D01*
X619963Y-1033221D01*
X613562Y-1035862D01*
X608025Y-1039926D01*
X603351Y-1045108D01*
X599592Y-1051102D01*
X596849Y-1057656D01*
X595172Y-1064412D01*
X594677Y-1070356D01*
X604520Y-1070356D01*
X604926Y-1065377D01*
X606094Y-1060348D01*
X607974Y-1055420D01*
X610565Y-1050899D01*
X613765Y-1046987D01*
X617575Y-1043889D01*
X621995Y-1041857D01*
X626872Y-1041146D01*
X630224Y-1041501D01*
X633171Y-1042720D01*
X635812Y-1044905D01*
X638302Y-1048258D01*
X633476Y-1075944D01*
X629056Y-1080668D01*
X624840Y-1083919D01*
X620826Y-1085748D01*
X616966Y-1086358D01*
X612038Y-1085443D01*
X608076Y-1082649D01*
X605485Y-1077671D01*
X604520Y-1070356D01*
X594677Y-1070356D01*
X595020Y-1076604D01*
X596188Y-1081430D01*
X598017Y-1085545D01*
X600456Y-1088999D01*
X603402Y-1091692D01*
X606806Y-1093673D01*
X610616Y-1094841D01*
X614680Y-1095248D01*
X620318Y-1094333D01*
X625754Y-1091742D01*
X630885Y-1087983D01*
X635508Y-1083310D01*
X635762Y-1083310D01*
X637590Y-1089101D01*
X641350Y-1093114D01*
X646633Y-1095502D01*
X653034Y-1096264D01*
X656894Y-1095959D01*
X660806Y-1094994D01*
X664667Y-1093368D01*
X668426Y-1091133D01*
X672033Y-1088288D01*
X675386Y-1084834D01*
X678434Y-1080770D01*
X681075Y-1076045D01*
X683260Y-1070762D01*
X684885Y-1064869D01*
X685952Y-1058367D01*
X686308Y-1051306D01*
X686054Y-1045260D01*
X685342Y-1039418D01*
X684123Y-1033932D01*
X682498Y-1028700D01*
X680364Y-1023772D01*
X677824Y-1019200D01*
X674878Y-1014984D01*
X671525Y-1011123D01*
X667766Y-1007618D01*
X663600Y-1004569D01*
X659079Y-1001928D01*
X654151Y-999744D01*
X648919Y-997966D01*
X643331Y-996696D01*
X637438Y-995934D01*
G37*
G36*
X819658Y-1020571D02*
G01*
X814984Y-1020927D01*
X810412Y-1021943D01*
X805992Y-1023569D01*
X801776Y-1025855D01*
X797814Y-1028700D01*
X794207Y-1032154D01*
X790956Y-1036167D01*
X788212Y-1040688D01*
X785926Y-1045768D01*
X784250Y-1051306D01*
X783178Y-1057402D01*
X795020Y-1057402D01*
X796086Y-1051356D01*
X797966Y-1046022D01*
X800455Y-1041400D01*
X803554Y-1037539D01*
X807161Y-1034491D01*
X811123Y-1032306D01*
X815390Y-1030935D01*
X819912Y-1030478D01*
X824636Y-1030935D01*
X828802Y-1032205D01*
X832459Y-1034389D01*
X835507Y-1037386D01*
X837996Y-1041196D01*
X839774Y-1045819D01*
X840892Y-1051204D01*
X841248Y-1057402D01*
X783178Y-1057402D01*
X782828Y-1063752D01*
X783183Y-1070305D01*
X784250Y-1076401D01*
X785926Y-1081989D01*
X788162Y-1087018D01*
X791006Y-1091539D01*
X794308Y-1095552D01*
X798068Y-1098956D01*
X802182Y-1101801D01*
X806704Y-1103985D01*
X811530Y-1105611D01*
X816660Y-1106576D01*
X821944Y-1106932D01*
X829970Y-1106271D01*
X837031Y-1104442D01*
X843280Y-1101801D01*
X848868Y-1098550D01*
X844296Y-1090168D01*
X839622Y-1093063D01*
X834644Y-1095197D01*
X829310Y-1096568D01*
X823468Y-1097026D01*
X817524Y-1096467D01*
X812190Y-1094841D01*
X807516Y-1092200D01*
X803452Y-1088644D01*
X800201Y-1084224D01*
X797661Y-1079042D01*
X796036Y-1073099D01*
X795274Y-1066546D01*
X851408Y-1066546D01*
X851966Y-1063040D01*
X852169Y-1058926D01*
X851611Y-1050493D01*
X849985Y-1042974D01*
X847293Y-1036421D01*
X843635Y-1030884D01*
X838962Y-1026464D01*
X833424Y-1023264D01*
X826973Y-1021232D01*
G37*
G36*
X514350Y-1020571D02*
G01*
X506323Y-1021689D01*
X499160Y-1024686D01*
X492607Y-1029157D01*
X486409Y-1034542D01*
X486156Y-1034542D01*
X484885Y-1022603D01*
X474726Y-1022603D01*
X474726Y-1104900D01*
X487172Y-1104900D01*
X487172Y-1044702D01*
X493166Y-1038860D01*
X498754Y-1034643D01*
X504443Y-1032103D01*
X510540Y-1031240D01*
X517906Y-1032611D01*
X522935Y-1036777D01*
X525881Y-1043889D01*
X526796Y-1054100D01*
X526796Y-1104900D01*
X539496Y-1104900D01*
X539496Y-1052576D01*
X539089Y-1045159D01*
X537972Y-1038656D01*
X536041Y-1033170D01*
X533298Y-1028649D01*
X529793Y-1025144D01*
X525475Y-1022603D01*
X520293Y-1021080D01*
G37*
G36*
X260096Y-1022603D02*
G01*
X293370Y-1105408D01*
X291338Y-1111758D01*
X288188Y-1119174D01*
X284022Y-1125016D01*
X278739Y-1128877D01*
X272288Y-1130300D01*
X268833Y-1129944D01*
X265938Y-1129030D01*
X263144Y-1139190D01*
X267563Y-1140460D01*
X272796Y-1140968D01*
X278434Y-1140409D01*
X283464Y-1138732D01*
X287832Y-1136142D01*
X291693Y-1132636D01*
X295046Y-1128420D01*
X297992Y-1123594D01*
X300532Y-1118260D01*
X302768Y-1112520D01*
X334010Y-1022603D01*
X321818Y-1022603D01*
X304800Y-1075283D01*
X299466Y-1092962D01*
X298704Y-1092962D01*
X290576Y-1069594D01*
X273050Y-1022603D01*
G37*
G36*
X419354Y-1162050D02*
G01*
X372110Y-1309878D01*
X381254Y-1309878D01*
X428498Y-1162050D01*
G37*
G36*
X636270Y-1169162D02*
G01*
X631240Y-1169466D01*
X626567Y-1170330D01*
X622198Y-1171752D01*
X618134Y-1173683D01*
X614273Y-1176020D01*
X610616Y-1178814D01*
X607110Y-1181963D01*
X603758Y-1185418D01*
X611124Y-1192530D01*
X616204Y-1187246D01*
X621893Y-1183081D01*
X628091Y-1180338D01*
X634746Y-1179322D01*
X639826Y-1179779D01*
X644194Y-1181049D01*
X647852Y-1183132D01*
X650849Y-1185875D01*
X653135Y-1189278D01*
X654761Y-1193139D01*
X655777Y-1197457D01*
X656082Y-1202182D01*
X655878Y-1205839D01*
X655320Y-1209598D01*
X654354Y-1213408D01*
X653034Y-1217371D01*
X651306Y-1221384D01*
X646582Y-1229868D01*
X640283Y-1238859D01*
X632256Y-1248410D01*
X622503Y-1258620D01*
X610971Y-1269593D01*
X604520Y-1275334D01*
X604520Y-1282700D01*
X673608Y-1282700D01*
X673608Y-1272032D01*
X637082Y-1272082D01*
X627837Y-1272590D01*
X623316Y-1273048D01*
X633069Y-1263548D01*
X641807Y-1254252D01*
X649478Y-1245158D01*
X655980Y-1236218D01*
X658774Y-1231798D01*
X661212Y-1227429D01*
X663295Y-1223060D01*
X665073Y-1218742D01*
X666445Y-1214475D01*
X667461Y-1210157D01*
X668070Y-1205941D01*
X668274Y-1201674D01*
X667715Y-1194612D01*
X666038Y-1188212D01*
X663346Y-1182674D01*
X659688Y-1178001D01*
X655116Y-1174242D01*
X649630Y-1171448D01*
X643331Y-1169771D01*
G37*
G36*
X555752Y-1169162D02*
G01*
X550722Y-1169568D01*
X545998Y-1170736D01*
X541629Y-1172667D01*
X537616Y-1175410D01*
X534009Y-1178966D01*
X530809Y-1183284D01*
X528015Y-1188466D01*
X525729Y-1194409D01*
X523900Y-1201216D01*
X522579Y-1208836D01*
X521716Y-1217269D01*
X521462Y-1226566D01*
X533654Y-1226566D01*
X534060Y-1215136D01*
X535228Y-1205382D01*
X537159Y-1197203D01*
X539750Y-1190650D01*
X542950Y-1185621D01*
X546709Y-1182116D01*
X551027Y-1180033D01*
X555752Y-1179322D01*
X560476Y-1180033D01*
X564794Y-1182116D01*
X568553Y-1185621D01*
X571754Y-1190650D01*
X574344Y-1197203D01*
X576275Y-1205382D01*
X577443Y-1215136D01*
X577850Y-1226566D01*
X577646Y-1234440D01*
X577138Y-1241602D01*
X576275Y-1248003D01*
X575056Y-1253693D01*
X573532Y-1258671D01*
X571754Y-1262938D01*
X569671Y-1266545D01*
X567334Y-1269441D01*
X564794Y-1271727D01*
X562000Y-1273302D01*
X558952Y-1274267D01*
X555752Y-1274572D01*
X552551Y-1274267D01*
X549554Y-1273302D01*
X546709Y-1271727D01*
X544169Y-1269441D01*
X541832Y-1266545D01*
X539750Y-1262938D01*
X537972Y-1258671D01*
X536448Y-1253693D01*
X535228Y-1248003D01*
X534365Y-1241602D01*
X533857Y-1234440D01*
X533654Y-1226566D01*
X521462Y-1226566D01*
X521716Y-1235862D01*
X522579Y-1244346D01*
X523900Y-1252067D01*
X525729Y-1258925D01*
X528015Y-1264970D01*
X530809Y-1270203D01*
X534009Y-1274673D01*
X537616Y-1278280D01*
X541629Y-1281125D01*
X545998Y-1283106D01*
X550722Y-1284325D01*
X555752Y-1284732D01*
X560832Y-1284325D01*
X565607Y-1283106D01*
X569976Y-1281125D01*
X573938Y-1278280D01*
X577545Y-1274673D01*
X580694Y-1270203D01*
X583387Y-1264970D01*
X585673Y-1258925D01*
X587451Y-1252067D01*
X588721Y-1244346D01*
X589534Y-1235862D01*
X589788Y-1226566D01*
X589534Y-1217320D01*
X588721Y-1208887D01*
X587451Y-1201318D01*
X585673Y-1194511D01*
X583387Y-1188567D01*
X580694Y-1183386D01*
X577545Y-1179017D01*
X573938Y-1175461D01*
X569976Y-1172718D01*
X565607Y-1170736D01*
X560832Y-1169568D01*
G37*
G36*
X468884Y-1169162D02*
G01*
X463854Y-1169466D01*
X459181Y-1170330D01*
X454812Y-1171752D01*
X450697Y-1173683D01*
X446887Y-1176020D01*
X443230Y-1178814D01*
X439724Y-1181963D01*
X436372Y-1185418D01*
X443738Y-1192530D01*
X448818Y-1187246D01*
X454507Y-1183081D01*
X460705Y-1180338D01*
X467359Y-1179322D01*
X472440Y-1179779D01*
X476808Y-1181049D01*
X480466Y-1183132D01*
X483463Y-1185875D01*
X485749Y-1189278D01*
X487375Y-1193139D01*
X488391Y-1197457D01*
X488696Y-1202182D01*
X488492Y-1205839D01*
X487934Y-1209598D01*
X486968Y-1213408D01*
X485648Y-1217371D01*
X483920Y-1221384D01*
X479196Y-1229868D01*
X472897Y-1238859D01*
X464870Y-1248410D01*
X455117Y-1258620D01*
X443585Y-1269593D01*
X437134Y-1275334D01*
X437134Y-1282700D01*
X506222Y-1282700D01*
X506222Y-1272032D01*
X469849Y-1272082D01*
X460451Y-1272590D01*
X455930Y-1273048D01*
X465683Y-1263548D01*
X474421Y-1254252D01*
X482092Y-1245158D01*
X488594Y-1236218D01*
X491388Y-1231798D01*
X493826Y-1227429D01*
X495909Y-1223060D01*
X497687Y-1218742D01*
X499059Y-1214475D01*
X500075Y-1210157D01*
X500684Y-1205941D01*
X500888Y-1201674D01*
X500329Y-1194612D01*
X498652Y-1188212D01*
X495960Y-1182674D01*
X492302Y-1178001D01*
X487730Y-1174242D01*
X482244Y-1171448D01*
X475945Y-1169771D01*
G37*
G36*
X722630Y-1171194D02*
G01*
X718108Y-1173632D01*
X712876Y-1175664D01*
X706932Y-1177391D01*
X700278Y-1178814D01*
X700278Y-1186942D01*
X719836Y-1186942D01*
X719836Y-1272286D01*
X694944Y-1272286D01*
X694944Y-1282700D01*
X754888Y-1282700D01*
X754888Y-1272286D01*
X732282Y-1272286D01*
X732282Y-1171194D01*
G37*
G36*
X328422Y-1171194D02*
G01*
X323799Y-1173632D01*
X318566Y-1175664D01*
X312623Y-1177391D01*
X305816Y-1178814D01*
X305816Y-1186942D01*
X325374Y-1186942D01*
X325374Y-1272286D01*
X300482Y-1272286D01*
X300482Y-1282700D01*
X360426Y-1282700D01*
X360426Y-1272286D01*
X337820Y-1272286D01*
X337820Y-1171194D01*
G37*
G36*
X244602Y-1171194D02*
G01*
X239979Y-1173632D01*
X234746Y-1175664D01*
X228803Y-1177391D01*
X221996Y-1178814D01*
X221996Y-1186942D01*
X241808Y-1186942D01*
X241808Y-1272286D01*
X216662Y-1272286D01*
X216662Y-1282700D01*
X276860Y-1282700D01*
X276860Y-1272286D01*
X254000Y-1272286D01*
X254000Y-1171194D01*
G37*
D33*
X-38100Y-1434084D02*
G01*
X-38100Y-1543050D01*
X68834Y-1449578D02*
G01*
X58420Y-1439163D01*
X42926Y-1434084D01*
X22097Y-1434084D01*
X6604Y-1439163D01*
X-3810Y-1449578D01*
X-3810Y-1459992D01*
X1270Y-1470405D01*
X6604Y-1475739D01*
X17018Y-1480820D01*
X48260Y-1491234D01*
X58420Y-1496313D01*
X63754Y-1501647D01*
X68834Y-1512062D01*
X68834Y-1527555D01*
X58420Y-1537970D01*
X42926Y-1543050D01*
X22097Y-1543050D01*
X6604Y-1537970D01*
X-3810Y-1527555D01*
X103123Y-1434084D02*
G01*
X103123Y-1543050D01*
X103123Y-1434084D02*
G01*
X149860Y-1434084D01*
X165607Y-1439163D01*
X170687Y-1444497D01*
X176021Y-1454912D01*
X176021Y-1470405D01*
X170687Y-1480820D01*
X165607Y-1485900D01*
X149860Y-1491234D01*
X103123Y-1491234D01*
X-144879Y1091305D02*
G01*
X-142273Y1102715D01*
X-143555Y1117386D01*
X-148074Y1127808D01*
X-164028Y1141196D01*
X-175270Y1144000D01*
X-189943Y1142715D01*
X-200723Y1138166D01*
X-214736Y1129370D01*
X-231391Y1109522D01*
X-237456Y1094386D01*
X-240068Y1082982D01*
X-238782Y1068308D01*
X-234068Y1057722D01*
X-218114Y1044336D01*
X-207065Y1041697D01*
X-192394Y1042979D01*
X-181617Y1047531D01*
X-114721Y1066002D02*
G01*
X-111457Y1069893D01*
X-100677Y1074442D01*
X-93355Y1075263D01*
X-82113Y1072459D01*
X-66156Y1059073D01*
X-61442Y1048489D01*
X-60982Y1041133D01*
X-63591Y1029731D01*
X-70281Y1021750D01*
X-81064Y1017203D01*
X-99001Y1012027D01*
X-172001Y1005641D01*
X-116352Y958943D01*
X-22359Y1248818D02*
G01*
X-20353Y1260350D01*
X-22400Y1274935D01*
X-27457Y1285105D01*
X-44091Y1297640D01*
X-55465Y1299852D01*
X-70050Y1297797D01*
X-80578Y1292689D01*
X-94112Y1283174D01*
X-109702Y1262481D01*
X-114973Y1247051D01*
X-116977Y1235527D01*
X-114929Y1220939D01*
X-109669Y1210614D01*
X-93032Y1198082D01*
X-81864Y1196022D01*
X-67282Y1198069D01*
X-56753Y1203177D01*
X28935Y1242611D02*
G01*
X74579Y1208217D01*
X24559Y1193749D01*
X36931Y1184424D01*
X42191Y1174102D01*
X43393Y1166835D01*
X37975Y1151196D01*
X31706Y1142883D01*
X18323Y1133568D01*
X3741Y1131516D01*
X-11894Y1136937D01*
X-24267Y1146258D01*
X-33583Y1159642D01*
X-34787Y1166906D01*
X-32575Y1178280D01*
X585541Y1327564D02*
G01*
X548271Y1225166D01*
X585541Y1327564D02*
G01*
X619671Y1315138D01*
X632734Y1304978D01*
X638718Y1291717D01*
X640168Y1280106D01*
X639556Y1263571D01*
X630694Y1239225D01*
X620621Y1226403D01*
X612051Y1218443D01*
X598942Y1212131D01*
X582404Y1212743D01*
X548271Y1225166D01*
X678901Y1271417D02*
G01*
X690511Y1272867D01*
X710613Y1282039D01*
X673341Y1179642D01*
X445841Y1987961D02*
G01*
X408571Y1885566D01*
X445841Y1987961D02*
G01*
X489757Y1971977D01*
X502582Y1961903D01*
X505769Y1955065D01*
X506981Y1943544D01*
X503417Y1933757D01*
X495081Y1925708D01*
X488332Y1922759D01*
X472038Y1923285D01*
X428117Y1939269D02*
G01*
X472038Y1923285D01*
X484771Y1912975D01*
X488045Y1906376D01*
X489259Y1894852D01*
X483872Y1880054D01*
X475536Y1872005D01*
X468787Y1869059D01*
X452490Y1869584D01*
X408571Y1885566D01*
X585470Y1937141D02*
G01*
X509059Y1848995D01*
X585470Y1937141D02*
G01*
X587344Y1820499D01*
X536277Y1877740D02*
G01*
X584969Y1860016D01*
X690966Y1898741D02*
G01*
X653699Y1796348D01*
X656836Y1911164D02*
G01*
X725098Y1886320D01*
X791451Y1862170D02*
G01*
X754184Y1759775D01*
X757321Y1874591D02*
G01*
X825583Y1849747D01*
X857806Y1838020D02*
G01*
X820539Y1735625D01*
X857806Y1838020D02*
G01*
X921296Y1814908D01*
X840084Y1789328D02*
G01*
X879226Y1775079D01*
X820539Y1735625D02*
G01*
X884026Y1712516D01*
X953518Y1803181D02*
G01*
X916249Y1700789D01*
X953518Y1803181D02*
G01*
X997435Y1787197D01*
X1010495Y1777037D01*
X1013444Y1770288D01*
X1014897Y1758678D01*
X1011334Y1748891D01*
X1002761Y1740928D01*
X996248Y1737893D01*
X979713Y1738505D01*
X935796Y1754489D01*
X969926Y1742069D02*
G01*
X984752Y1675856D01*
X1054242Y1766521D02*
G01*
X1075425Y1703669D01*
X1055878Y1649966D01*
X1132291Y1738114D02*
G01*
X1075425Y1703669D01*
X-997686Y1665561D02*
G01*
X-948220Y1568472D01*
X-948220Y1568472D02*
G01*
X-892769Y1596725D01*
X-911687Y1709381D02*
G01*
X-862215Y1612290D01*
X-911687Y1709381D02*
G01*
X-851486Y1740054D01*
X-888164Y1663212D02*
G01*
X-851047Y1682122D01*
X-862215Y1612290D02*
G01*
X-802020Y1642963D01*
X-820935Y1755622D02*
G01*
X-771466Y1658531D01*
X-820935Y1755622D02*
G01*
X-788344Y1772229D01*
X-772233Y1774736D01*
X-758228Y1770184D01*
X-748974Y1763212D01*
X-737072Y1751601D01*
X-725309Y1728518D01*
X-723026Y1712287D01*
X-722825Y1700705D01*
X-727377Y1686699D01*
X-738875Y1675137D01*
X-771466Y1658531D01*
X-662950Y1818731D02*
G01*
X-672203Y1825703D01*
X-688543Y1823079D01*
X-697821Y1818350D01*
X-709317Y1806790D01*
X-711446Y1788030D01*
X-704212Y1762640D01*
X-692452Y1739557D01*
X-678469Y1723306D01*
X-664461Y1718754D01*
X-648350Y1721264D01*
X-643597Y1723684D01*
X-632099Y1735244D01*
X-627547Y1749249D01*
X-629831Y1765477D01*
X-632249Y1770230D01*
X-644037Y1781614D01*
X-658042Y1786163D01*
X-674156Y1783656D01*
X-678906Y1781235D01*
X-690410Y1769678D01*
X-694959Y1755668D01*
X-692452Y1739557D01*
X1453642Y-1103881D02*
G01*
X1443228Y-1108963D01*
X1432813Y-1119375D01*
X1427479Y-1129789D01*
X1422400Y-1145537D01*
X1422400Y-1171447D01*
X1427479Y-1186942D01*
X1432813Y-1197353D01*
X1443228Y-1207767D01*
X1453642Y-1212847D01*
X1474472Y-1212847D01*
X1484632Y-1207767D01*
X1495044Y-1197353D01*
X1500380Y-1186939D01*
X1505460Y-1171445D01*
X1505457Y-1145539D01*
X1500378Y-1129789D01*
X1495044Y-1119378D01*
X1484629Y-1108961D01*
X1474470Y-1103881D01*
X1453642Y-1103881D01*
X1469136Y-1192273D02*
G01*
X1500378Y-1223261D01*
X1539750Y-1124709D02*
G01*
X1550162Y-1119378D01*
X1565910Y-1103884D01*
X1565910Y-1212847D01*
X660400Y-722884D02*
G01*
X660400Y-831850D01*
X660400Y-722884D02*
G01*
X707136Y-722884D01*
X722629Y-727963D01*
X727963Y-733297D01*
X733044Y-743712D01*
X733044Y-754126D01*
X727963Y-764539D01*
X722629Y-769620D01*
X707136Y-774700D01*
X660400Y-774700D01*
X696721Y-774700D02*
G01*
X733044Y-831850D01*
X767334Y-743712D02*
G01*
X777747Y-738378D01*
X793495Y-722884D01*
X793495Y-831850D01*
X127000Y-697484D02*
G01*
X127000Y-806450D01*
X127000Y-697484D02*
G01*
X173736Y-697484D01*
X189229Y-702563D01*
X194563Y-707897D01*
X199644Y-718312D01*
X199644Y-728726D01*
X194563Y-739139D01*
X189229Y-744220D01*
X173736Y-749300D01*
X127000Y-749300D01*
X163321Y-749300D02*
G01*
X199644Y-806450D01*
X239268Y-723392D02*
G01*
X239268Y-718312D01*
X244347Y-707897D01*
X249681Y-702563D01*
X260095Y-697484D01*
X280670Y-697484D01*
X291084Y-702563D01*
X296418Y-707897D01*
X301497Y-718312D01*
X301497Y-728726D01*
X296418Y-739139D01*
X286004Y-754634D01*
X233934Y-806450D01*
X306831Y-806450D01*
X-1639976Y-656183D02*
G01*
X-1647116Y-669063D01*
X-1647731Y-685358D01*
X-1641988Y-705380D01*
X-1632833Y-718873D01*
X-1619953Y-726013D01*
X-1609943Y-723143D01*
X-1601332Y-715388D01*
X-1597675Y-708792D01*
X-1595663Y-697379D01*
X-1594264Y-664479D01*
X-1592181Y-653313D01*
X-1588523Y-646714D01*
X-1579913Y-638959D01*
X-1565020Y-634690D01*
X-1552138Y-641830D01*
X-1542986Y-655322D01*
X-1537243Y-675345D01*
X-1537855Y-691639D01*
X-1544995Y-704519D01*
X-1664322Y-627491D02*
G01*
X-1559577Y-597458D01*
X-1684416Y-557418D02*
G01*
X-1579671Y-527382D01*
X-1614512Y-613209D02*
G01*
X-1634606Y-543135D01*
X-1705279Y-484659D02*
G01*
X-1589123Y-494421D01*
X-1705279Y-484659D02*
G01*
X-1612016Y-414581D01*
X-1628307Y-489539D02*
G01*
X-1642661Y-439486D01*
X-1726214Y-411655D02*
G01*
X-1621467Y-381619D01*
X-1746237Y-341825D02*
G01*
X-1656382Y-391632D01*
X-1688429Y-373867D02*
G01*
X-1641492Y-311790D01*
X-1755688Y-308863D02*
G01*
X-1650944Y-278828D01*
X-1755688Y-308863D02*
G01*
X-1774311Y-243916D01*
X-1705879Y-294581D02*
G01*
X-1717362Y-254538D01*
X-1650944Y-278828D02*
G01*
X-1669567Y-213880D01*
X-825500Y13715D02*
G01*
X-825500Y-64262D01*
X-820420Y-79755D01*
X-810005Y-90170D01*
X-794257Y-95250D01*
X-783844Y-95250D01*
X-768350Y-90170D01*
X-757936Y-79755D01*
X-752855Y-64262D01*
X-752855Y13715D01*
X-713231Y-12192D02*
G01*
X-713231Y-7112D01*
X-708152Y3302D01*
X-702818Y8636D01*
X-692404Y13715D01*
X-671829Y13715D01*
X-661415Y8636D01*
X-656081Y3302D01*
X-651002Y-7112D01*
X-651002Y-17526D01*
X-656081Y-27939D01*
X-666495Y-43434D01*
X-718565Y-95250D01*
X-645668Y-95250D01*
X-407517Y1828685D02*
G01*
X-298297Y1828685D01*
X-298297Y1828685D02*
G01*
X-298297Y1891169D01*
X-407517Y1925459D02*
G01*
X-298297Y1925459D01*
X-407517Y1925459D02*
G01*
X-407517Y1993023D01*
X-355447Y1925459D02*
G01*
X-355447Y1967115D01*
X-298297Y1925459D02*
G01*
X-298297Y1993023D01*
X-407517Y2027313D02*
G01*
X-298297Y2027313D01*
X-407517Y2027313D02*
G01*
X-407517Y2063635D01*
X-402183Y2079129D01*
X-391769Y2089543D01*
X-381355Y2094877D01*
X-365861Y2099957D01*
X-339953Y2099957D01*
X-324205Y2094877D01*
X-314045Y2089543D01*
X-303631Y2079129D01*
X-298297Y2063635D01*
X-298297Y2027313D01*
X-386689Y2134247D02*
G01*
X-391769Y2144661D01*
X-407517Y2160155D01*
X-298297Y2160155D01*
X1782361Y275363D02*
G01*
X1814220Y171157D01*
X1814220Y171157D02*
G01*
X1873973Y189428D01*
X1874906Y303656D02*
G01*
X1906765Y199453D01*
X1874906Y303656D02*
G01*
X1939274Y323336D01*
X1890054Y254104D02*
G01*
X1929648Y266209D01*
X1906765Y199453D02*
G01*
X1971133Y219130D01*
X1972066Y333362D02*
G01*
X2003925Y229156D01*
X1972066Y333362D02*
G01*
X2007044Y344055D01*
X2023346Y343728D01*
X2036351Y336814D01*
X2044252Y328340D01*
X2053958Y314840D01*
X2061532Y290062D01*
X2060963Y273687D01*
X2059150Y262242D01*
X2052236Y249240D01*
X2038903Y239852D01*
X2003925Y229156D01*
X2087003Y341409D02*
G01*
X2085517Y346268D01*
X2087575Y357786D01*
X2090874Y364373D01*
X2099348Y372275D01*
X2119264Y378366D01*
X2130709Y376552D01*
X2137128Y372935D01*
X2145271Y364535D01*
X2148316Y354578D01*
X2146261Y343060D01*
X2140831Y325198D01*
X2106429Y260497D01*
X2175898Y281734D01*
X1398775Y-1223581D02*
G01*
X1310413Y-1287779D01*
X1310413Y-1287779D02*
G01*
X1347142Y-1338333D01*
X1455656Y-1301877D02*
G01*
X1367297Y-1366075D01*
X1455656Y-1301877D02*
G01*
X1495369Y-1356535D01*
X1413530Y-1332481D02*
G01*
X1437868Y-1365976D01*
X1367297Y-1366075D02*
G01*
X1407007Y-1420733D01*
X1515524Y-1384277D02*
G01*
X1427165Y-1448475D01*
X1515524Y-1384277D02*
G01*
X1536875Y-1413659D01*
X1541665Y-1429331D01*
X1539361Y-1443878D01*
X1534073Y-1454312D01*
X1524523Y-1467530D01*
X1503563Y-1482760D01*
X1487835Y-1487906D01*
X1476481Y-1489565D01*
X1461935Y-1487261D01*
X1448513Y-1477860D01*
X1427165Y-1448475D01*
X1584502Y-1479212D02*
G01*
X1618091Y-1525447D01*
X1566029Y-1524657D01*
X1575285Y-1537395D01*
X1577146Y-1548602D01*
X1575968Y-1556054D01*
X1566420Y-1569270D01*
X1557992Y-1575391D01*
X1542473Y-1580390D01*
X1527926Y-1578084D01*
X1514500Y-1568686D01*
X1505247Y-1555945D01*
X1500454Y-1540276D01*
X1501429Y-1532973D01*
X1506870Y-1522742D01*
X-1639293Y-1502186D02*
G01*
X-1551137Y-1566237D01*
X-1551137Y-1566237D02*
G01*
X-1514558Y-1515889D01*
X-1582559Y-1424099D02*
G01*
X-1494403Y-1488147D01*
X-1582559Y-1424099D02*
G01*
X-1542846Y-1369438D01*
X-1540639Y-1454558D02*
G01*
X-1516153Y-1420858D01*
X-1494403Y-1488147D02*
G01*
X-1454691Y-1433487D01*
X-1522691Y-1341699D02*
G01*
X-1434536Y-1405747D01*
X-1522691Y-1341699D02*
G01*
X-1501343Y-1312316D01*
X-1487975Y-1302557D01*
X-1473426Y-1300256D01*
X-1462016Y-1302265D01*
X-1446496Y-1307264D01*
X-1425333Y-1322644D01*
X-1415783Y-1335859D01*
X-1410342Y-1346088D01*
X-1408041Y-1360637D01*
X-1413187Y-1376365D01*
X-1434536Y-1405747D01*
X-1429230Y-1213063D02*
G01*
X-1401066Y-1297886D01*
X-1355232Y-1234803D01*
X-1429230Y-1213063D02*
G01*
X-1341074Y-1277112D01*
X-2183048Y375216D02*
G01*
X-2220404Y272585D01*
X-2220404Y272585D02*
G01*
X-2161689Y251213D01*
X-2092109Y342117D02*
G01*
X-2129467Y239486D01*
X-2092109Y342117D02*
G01*
X-2028621Y319011D01*
X-2109922Y293187D02*
G01*
X-2071016Y279026D01*
X-2129467Y239486D02*
G01*
X-2065980Y216377D01*
X-1996399Y307281D02*
G01*
X-2033752Y204647D01*
X-1996399Y307281D02*
G01*
X-1962269Y294858D01*
X-1949533Y284548D01*
X-1943308Y271200D01*
X-1942099Y259676D01*
X-1942381Y243291D01*
X-1951243Y218945D01*
X-1961644Y205973D01*
X-1969980Y197926D01*
X-1983325Y191701D01*
X-1999620Y192224D01*
X-2033752Y204647D01*
X-1837436Y249422D02*
G01*
X-1886125Y267147D01*
X-1907212Y224815D01*
X-1900374Y228003D01*
X-1884075Y227477D01*
X-1869282Y222089D01*
X-1856455Y212018D01*
X-1850235Y198671D01*
X-1850760Y182374D01*
X-1854321Y172587D01*
X-1864481Y159527D01*
X-1877827Y153301D01*
X-1894126Y153827D01*
X-1908924Y159214D01*
X-1921746Y169288D01*
X-1924933Y176121D01*
X-1926145Y187650D01*
X1862358Y1247089D02*
G01*
X1805327Y1193909D01*
X1797636Y1179438D01*
X1796948Y1164907D01*
X1803786Y1149753D01*
X1810890Y1142136D01*
X1825358Y1134442D01*
X1840077Y1133927D01*
X1854873Y1140780D01*
X1911903Y1193960D01*
X1920054Y1154678D02*
G01*
X1931057Y1150698D01*
X1953127Y1149751D01*
X1873252Y1075260D01*
X135752Y80469D02*
G01*
X124749Y84447D01*
X110030Y84962D01*
X99136Y81749D01*
X83903Y67546D01*
X79750Y56728D01*
X79237Y42009D01*
X82438Y30754D01*
X89463Y15770D01*
X107132Y-3175D01*
X121414Y-11043D01*
X132417Y-15019D01*
X147137Y-15534D01*
X158219Y-12146D01*
X173451Y2054D01*
X177416Y12700D01*
X177932Y27419D01*
X174729Y38674D01*
X157365Y107571D02*
G01*
X161345Y118574D01*
X162110Y140474D01*
X236425Y60779D01*
X404522Y-224276D02*
G01*
X393590Y-220108D01*
X378884Y-219336D01*
X367934Y-222361D01*
X352452Y-236298D01*
X348114Y-247040D01*
X347345Y-261749D01*
X350349Y-273055D01*
X357111Y-288157D01*
X374446Y-307413D01*
X388589Y-315526D01*
X399521Y-319697D01*
X414230Y-320469D01*
X425366Y-317273D01*
X440847Y-303336D01*
X444995Y-292765D01*
X445770Y-278058D01*
X442762Y-266748D01*
X451177Y-147408D02*
G01*
X461276Y-236065D01*
X519226Y-183888D01*
X451177Y-147408D02*
G01*
X524088Y-228386D01*
X1671764Y-981359D02*
G01*
X1774395Y-1018715D01*
X1671764Y-981359D02*
G01*
X1687748Y-937442D01*
X1698058Y-924707D01*
X1704657Y-921430D01*
X1716181Y-920221D01*
X1725968Y-923780D01*
X1734017Y-932119D01*
X1736963Y-938867D01*
X1736679Y-955253D01*
X1720695Y-999169D02*
G01*
X1736679Y-955253D01*
X1746752Y-942428D01*
X1753588Y-939241D01*
X1765109Y-938029D01*
X1779671Y-943328D01*
X1787718Y-951664D01*
X1790669Y-958413D01*
X1790382Y-974798D01*
X1774395Y-1018715D01*
X1708337Y-880877D02*
G01*
X1781611Y-907544D01*
X1798147Y-908156D01*
X1811258Y-901844D01*
X1821657Y-888872D01*
X1825218Y-879086D01*
X1825503Y-862700D01*
X1819518Y-849439D01*
X1806458Y-839282D01*
X1733184Y-812612D01*
X1769844Y-711885D02*
G01*
X1847545Y-817745D01*
X1744911Y-780389D02*
G01*
X1769844Y-711885D01*
X1847545Y-817745D02*
G01*
X1872477Y-749244D01*
X1806417Y-611403D02*
G01*
X1884205Y-717021D01*
X1781571Y-679665D02*
G01*
X1806417Y-611403D01*
X1884205Y-717021D02*
G01*
X1909048Y-648759D01*
X1818144Y-579180D02*
G01*
X1920778Y-616536D01*
X1818144Y-579180D02*
G01*
X1841251Y-515691D01*
X1867075Y-596991D02*
G01*
X1881322Y-557847D01*
X1920778Y-616536D02*
G01*
X1943887Y-553049D01*
X1852983Y-483471D02*
G01*
X1955614Y-520824D01*
X1852983Y-483471D02*
G01*
X1868965Y-439552D01*
X1879277Y-426816D01*
X1885876Y-423542D01*
X1897397Y-422330D01*
X1907186Y-425891D01*
X1915233Y-434228D01*
X1918182Y-440977D01*
X1917898Y-457360D01*
X1901911Y-501279D01*
X1914334Y-467146D02*
G01*
X1980460Y-452561D01*
G36*
X-249986Y1993900D02*
G01*
X-249986Y1841500D01*
X-114300Y1841500D01*
X-101600Y1828800D01*
X-101600Y1752600D01*
X-92913Y1743913D01*
X0Y1743913D01*
G37*
G36*
X1831898Y861364D02*
G01*
X1686153Y816813D01*
X1725828Y687070D01*
X1717395Y671169D01*
X1644548Y648919D01*
X1638757Y638048D01*
X1665935Y549198D01*
G37*
G36*
X1271574Y-1338884D02*
G01*
X1164640Y-1422450D01*
X1146810Y-1420266D01*
X1099921Y-1360220D01*
X1087678Y-1358696D01*
X1014476Y-1415897D01*
X1365402Y-1458976D01*
G37*
G36*
X-1021435Y-1397965D02*
G01*
X-966165Y-1747164D01*
X-876553Y-1623872D01*
X-986332Y-1544066D01*
X-989177Y-1526336D01*
X-944371Y-1464716D01*
X-946302Y-1452524D01*
G37*
G36*
X-1655927Y540918D02*
G01*
X-1973681Y385927D01*
X-1829612Y336296D01*
X-1785416Y464616D01*
X-1769262Y472490D01*
X-1697228Y447700D01*
X-1686153Y453085D01*
G37*
D32*
X754379Y-1606981D02*
G01*
X754379Y-2506979D01*
X614679Y-1729739D02*
G01*
X614679Y-2386736D01*
X-825245Y-1605279D02*
G01*
X754887Y-1605279D01*
X-828039Y-2505278D02*
G01*
X-828039Y-1605279D01*
X-685800Y-2385060D02*
G01*
X-685800Y-1728063D01*
X-825500Y-2506979D02*
G01*
X754100Y-2506979D01*
X-684936Y-1727200D02*
G01*
X614908Y-1727200D01*
X-591820Y-2385060D02*
G01*
X-518160Y-2311400D01*
X-444500Y-2385060D01*
X-444500Y-2387600D01*
X-160020Y-2283460D02*
G01*
X-160020Y-2499360D01*
X-160020Y-2283460D02*
G01*
X104139Y-2283460D01*
X104139Y-2506979D01*
X355600Y-2506979D01*
X-680720Y-2387600D02*
G01*
X-685800Y-2387600D01*
X-165100Y-2387600D01*
X-162560Y-2385060D01*
X104139Y-2385060D02*
G01*
X109220Y-2387600D01*
X609600Y-2387600D01*
X612139Y-2385060D01*
D33*
X311132Y803696D02*
G01*
X203116Y894331D01*
X86951Y755891D02*
G01*
X194965Y665259D01*
X216433Y667136D02*
G01*
X313006Y782228D01*
X33634Y1036540D02*
G01*
X141648Y945908D01*
X25483Y807468D02*
G01*
X-82532Y898103D01*
X-84406Y919571D02*
G01*
X12166Y1034663D01*
X57170Y1063200D02*
G01*
X165183Y972568D01*
X281350Y1111008D02*
G01*
X173334Y1201640D01*
X151869Y1199763D02*
G01*
X55293Y1084673D01*
X334665Y830359D02*
G01*
X226649Y920991D01*
X342816Y1059431D02*
G01*
X450829Y968799D01*
X452706Y947326D02*
G01*
X356130Y832236D01*
D32*
X555297Y1444927D02*
G01*
X765459Y1376639D01*
X629076Y1671998D02*
G01*
X836825Y1604497D01*
D34*
X1133020Y2064466D02*
G01*
X1047013Y1828172D01*
X569650Y2001921D01*
X655652Y2238212D01*
X1133020Y2064466D01*
D32*
X-1036068Y1926219D02*
G01*
X-944118Y1745754D01*
X-1214782Y1835160D02*
G01*
X-680905Y2107184D01*
X-588952Y1926719D01*
X-1122834Y1654693D01*
X-1214782Y1835160D01*
D33*
X1438678Y-1028920D02*
G01*
X1583921Y-1028920D01*
X1583921Y-925758D01*
X1438678Y-723679D02*
G01*
X1583921Y-723679D01*
X1583921Y-826841D01*
X1438678Y-921839D02*
G01*
X1438678Y-830757D01*
X993780Y-682990D02*
G01*
X865286Y-682990D01*
X865286Y-866409D01*
X993780Y-866409D01*
X1089019Y-682990D02*
G01*
X1217513Y-682990D01*
X1217513Y-866409D01*
X1089019Y-866409D01*
X129809Y-422280D02*
G01*
X129809Y-293786D01*
X-53609Y-293786D01*
X-53609Y-422280D01*
X129809Y-517519D02*
G01*
X129809Y-646013D01*
X-53609Y-646013D01*
X-53609Y-517519D01*
D32*
X-1799981Y-963140D02*
G01*
X-1869993Y-718980D01*
X-1782919Y-561893D01*
X-2010018Y-230659D02*
G01*
X-1940006Y-474819D01*
X-1664080Y-1151417D02*
G01*
X-1566418Y-1123411D01*
X-1896877Y29027D01*
X-2001865Y-1079D01*
X-2138593Y-40281D02*
G01*
X-2243581Y-70388D01*
X-1913122Y-1222827D01*
X-1815459Y-1194821D01*
D33*
X-954239Y-142529D02*
G01*
X-518960Y-142529D01*
X-518960Y-670270D01*
X-954239Y-670270D01*
X-954239Y-142529D01*
D32*
X-250004Y1743895D02*
G01*
X-250004Y2243894D01*
X76956Y1743895D02*
G01*
X-76967Y1743895D01*
X-238031Y1743895D02*
G01*
X-250004Y1743895D01*
X249994Y1743895D02*
G01*
X238020Y1743895D01*
X249994Y2243894D02*
G01*
X249994Y1743895D01*
X238020Y2243894D02*
G01*
X249994Y2243894D01*
X-250004Y2243894D02*
G01*
X-238031Y2243894D01*
X-76967Y2243894D02*
G01*
X76956Y2243894D01*
X1592826Y788286D02*
G01*
X2070976Y934471D01*
X1688419Y475612D02*
G01*
X1643415Y622810D01*
X1596326Y776836D02*
G01*
X1592826Y788286D01*
X1739011Y310134D02*
G01*
X1735510Y321584D01*
X2217160Y456321D02*
G01*
X1739011Y310134D01*
X2213660Y467771D02*
G01*
X2217160Y456321D01*
X2070976Y934471D02*
G01*
X2074476Y923020D01*
X2121568Y768995D02*
G01*
X2166571Y621797D01*
X1211488Y-1261976D02*
G01*
X1519316Y-1655980D01*
X953838Y-1463273D02*
G01*
X1075131Y-1368506D01*
X1202052Y-1269347D02*
G01*
X1211488Y-1261976D01*
X817483Y-1569803D02*
G01*
X826917Y-1562432D01*
X1125313Y-1963808D02*
G01*
X817483Y-1569803D01*
X1134747Y-1956437D02*
G01*
X1125313Y-1963808D01*
X1519316Y-1655980D02*
G01*
X1509882Y-1663352D01*
X1382963Y-1762513D02*
G01*
X1261668Y-1857278D01*
X-819193Y-1544891D02*
G01*
X-1113083Y-1949399D01*
X-1083711Y-1352710D02*
G01*
X-959182Y-1443182D01*
X-828880Y-1537853D02*
G01*
X-819193Y-1544891D01*
X-1223700Y-1250998D02*
G01*
X-1214013Y-1258036D01*
X-1517591Y-1655505D02*
G01*
X-1223700Y-1250998D01*
X-1507906Y-1662544D02*
G01*
X-1517591Y-1655505D01*
X-1113083Y-1949399D02*
G01*
X-1122771Y-1942360D01*
X-1253075Y-1847689D02*
G01*
X-1377602Y-1757215D01*
X-1737309Y304523D02*
G01*
X-2210066Y467306D01*
X-1630860Y613671D02*
G01*
X-1680974Y468132D01*
X-1733410Y315843D02*
G01*
X-1737309Y304523D01*
X-1574525Y777280D02*
G01*
X-1578424Y765959D01*
X-2047283Y940064D02*
G01*
X-1574525Y777280D01*
X-2051182Y928743D02*
G01*
X-2047283Y940064D01*
X-2210066Y467306D02*
G01*
X-2206170Y478627D01*
X-2153732Y630915D02*
G01*
X-2103620Y776455D01*
D33*
X1343362Y1550482D02*
G01*
X1807288Y1052984D01*
X1603037Y862517D01*
X1139111Y1360015D01*
X1343362Y1550482D01*
D35*
X1065037Y662139D02*
G01*
X810392Y935212D01*
D32*
X600730Y746648D02*
G01*
X608159Y753574D01*
X851512Y980503D01*
X1113083Y699998D01*
X869734Y473072D01*
X862302Y466143D01*
X637529Y256537D02*
G01*
X390461Y26144D01*
X128889Y306649D01*
X375955Y537042D01*
D35*
X1360197Y349143D02*
G01*
X1110358Y626618D01*
D32*
X897437Y441739D02*
G01*
X904986Y448538D01*
X1152260Y671184D01*
X1408899Y386158D01*
X1161625Y163509D01*
X1154074Y156712D01*
X925677Y-48935D02*
G01*
X674629Y-274982D01*
X417990Y10043D01*
X669038Y236090D01*
D34*
X1999533Y-492579D02*
G01*
X2235824Y-578586D01*
X2062081Y-1055949D01*
X1825785Y-969944D01*
X1999533Y-492579D01*
D33*
G75*
G01*
X194965Y665259D02*
G03*
X216433Y667136I9796J11675D01*
G75*
G01*
X313007Y782229D02*
G03*
X311132Y803697I-11674J9796D01*
G75*
G01*
X-82532Y898103D02*
G02*
X-84407Y919571I9799J11672D01*
G75*
G01*
X12167Y1034664D02*
G02*
X33635Y1036541I11672J-9798D01*
G75*
G01*
X173335Y1201641D02*
G03*
X151869Y1199764I-9794J-11676D01*
G75*
G01*
X55293Y1084674D02*
G03*
X57170Y1063201I11673J-9798D01*
G75*
G01*
X450830Y968799D02*
G02*
X452707Y947326I-9796J-11675D01*
G75*
G01*
X356131Y832236D02*
G02*
X334665Y830359I-11672J9799D01*
D32*
G75*
G01
X779026Y1348435D02*
G03X779026Y1348435I-25400J0D01*
D36*
G75*
G01
X-863981Y-215900D02*
G03X-863981Y-215900I-15011J0D01*
G75*
G01
X-1074598Y-139167D02*
G03X-1074598Y-139167I-15011J0D01*
D32*
G75*
G01
X-239979Y1693913D02*
G03X-239979Y1693913I-10008J0D01*
G75*
G01
X150012Y1993964D02*
G03X150012Y1993964I-150012J0D01*
G75*
G01
X1555039Y773656D02*
G03X1555039Y773656I-10008J0D01*
G75*
G01
X2055073Y622318D02*
G03X2055073Y622318I-150012J0D01*
G75*
G01
X1190709Y-1222601D02*
G03X1190709Y-1222601I-10008J0D01*
G75*
G01
X1318450Y-1612951D02*
G03X1318450Y-1612951I-150012J0D01*
G75*
G01
X-779821Y-1504445D02*
G03X-779821Y-1504445I-10008J0D01*
G75*
G01
X-1018426Y-1600251D02*
G03X-1018426Y-1600251I-150012J0D01*
G75*
G01
X-1680037Y288267D02*
G03X-1680037Y288267I-10008J0D01*
G75*
G01
X-1742349Y622320D02*
G03X-1742349Y622320I-150012J0D01*
M02*
