G04 Layer: BottomLayer*
G04 EasyEDA v6.4.25, 2021-11-16T21:36:29+01:00*
G04 969fc306525a459593755dfbefa048c4,10*
G04 Gerber Generator version 0.2*
G04 Scale: 100 percent, Rotated: No, Reflected: No *
G04 Dimensions in millimeters *
G04 leading zeros omitted , absolute positions ,4 integer and 5 decimal *
%FSLAX45Y45*%
%MOMM*%

%ADD10C,0.5080*%
%ADD11C,0.6350*%
%ADD12C,0.3810*%
%ADD14C,0.6604*%
%ADD25C,1.5240*%
%ADD27C,1.5748*%
%ADD29C,1.4000*%
%ADD31C,1.1989*%

%LPD*%
D10*
X215900Y-2184400D02*
G01*
X381000Y-2082800D01*
X381000Y-1574800D01*
X393700Y-25400D01*
X-1092200Y-25400D01*
D11*
X-2080005Y13462D02*
G01*
X-1993900Y965200D01*
X-1193800Y977900D01*
X-863600Y1447800D01*
X-1346200Y1752600D01*
X-1308100Y1854200D01*
X-939800Y2070100D01*
X-723392Y1970278D01*
X970239Y1988563D02*
G01*
X899375Y1917700D01*
X711200Y1866900D01*
X482600Y1968500D01*
X-723498Y1970399D01*
X-901700Y1879600D02*
G01*
X-723900Y1752600D01*
X457200Y1752600D01*
X1384300Y1435100D01*
X1828800Y901700D01*
X2057400Y114300D01*
X2075439Y-655360D01*
X215900Y-1930400D02*
G01*
X215900Y-215900D01*
X-1816100Y-190500D01*
X-2080031Y13500D01*
D12*
X-825500Y-723900D02*
G01*
X-165100Y-733297D01*
X-165100Y-2057400D01*
X-38100Y-2184400D01*
X-165100Y1447800D02*
G01*
X165100Y1447800D01*
D11*
X-863600Y-1917700D02*
G01*
X-850900Y-1930400D01*
X-292100Y-1930400D01*
D25*
G01*
X-292100Y-2184400D03*
G01*
X-292100Y-1930400D03*
G01*
X-38100Y-2184400D03*
G01*
X-38100Y-1930400D03*
G01*
X215900Y-2184400D03*
G01*
X215900Y-1930400D03*
G36*
X832482Y2122497D02*
G01*
X778619Y1974514D01*
X630638Y2028375D01*
X684496Y2176358D01*
G37*
D27*
G01*
X970239Y1988563D03*
G36*
X-1174048Y1819391D02*
G01*
X-1049312Y1882950D01*
X-985751Y1758210D01*
X-1110490Y1694654D01*
G37*
D29*
G01*
X-901700Y1879600D03*
G01*
X-723498Y1970399D03*
G36*
X-1655826Y-1248399D02*
G01*
X-1771068Y-1281445D01*
X-1804116Y-1166202D01*
X-1688871Y-1133157D01*
G37*
D31*
G01*
X-2080031Y13500D03*
G36*
X1941502Y-793120D02*
G01*
X2089485Y-846980D01*
X2035622Y-994963D01*
X1887641Y-941103D01*
G37*
D27*
G01*
X2075439Y-655360D03*
D14*
G01*
X-863600Y-1917700D03*
G01*
X165100Y1447800D03*
G01*
X-165100Y1447800D03*
G01*
X-1092200Y-25400D03*
G01*
X-825500Y-723900D03*
M02*
