G04 Layer: TopSolderMaskLayer*
G04 EasyEDA v6.4.25, 2021-11-16T21:36:29+01:00*
G04 969fc306525a459593755dfbefa048c4,10*
G04 Gerber Generator version 0.2*
G04 Scale: 100 percent, Rotated: No, Reflected: No *
G04 Dimensions in millimeters *
G04 leading zeros omitted , absolute positions ,4 integer and 5 decimal *
%FSLAX45Y45*%
%MOMM*%

%ADD37C,0.7316*%
%ADD38C,1.6256*%
%ADD42C,1.6764*%
%ADD44C,1.5016*%
%ADD49C,1.4021*%

%LPD*%
D37*
X-1008608Y-215900D02*
G01*
X-1170609Y-215900D01*
X-1008608Y-342900D02*
G01*
X-1170609Y-342900D01*
X-1008608Y-469900D02*
G01*
X-1170609Y-469900D01*
X-1008608Y-596900D02*
G01*
X-1170609Y-596900D01*
X-302590Y-215900D02*
G01*
X-464591Y-215900D01*
X-302590Y-342900D02*
G01*
X-464591Y-342900D01*
X-302590Y-469900D02*
G01*
X-464591Y-469900D01*
X-302590Y-596900D02*
G01*
X-464591Y-596900D01*
D38*
G01*
X-292100Y-2184400D03*
G01*
X-292100Y-1930400D03*
G01*
X-38100Y-2184400D03*
G01*
X-38100Y-1930400D03*
G01*
X215900Y-2184400D03*
G01*
X215900Y-1930400D03*
G36*
X204470Y680465D02*
G01*
X88645Y777747D01*
X181863Y889000D01*
X297687Y791718D01*
G37*
G36*
X46736Y812800D02*
G01*
X-69087Y910081D01*
X24129Y1021334D01*
X139954Y924052D01*
G37*
G36*
X186436Y977900D02*
G01*
X70612Y1075181D01*
X163829Y1186434D01*
X279654Y1089152D01*
G37*
G36*
X344170Y845565D02*
G01*
X228345Y942847D01*
X321563Y1054100D01*
X437387Y956818D01*
G37*
G36*
X1026413Y1248918D02*
G01*
X769365Y1332484D01*
X868426Y1637284D01*
X1125220Y1553718D01*
G37*
G36*
X528573Y1410715D02*
G01*
X271779Y1494281D01*
X370586Y1799081D01*
X627634Y1715515D01*
G37*
G36*
X781557Y1967992D02*
G01*
X624078Y2025395D01*
X681481Y2182876D01*
X838962Y2125471D01*
G37*
D42*
G01*
X970239Y1988563D03*
G36*
X-1112773Y1687829D02*
G01*
X-1180845Y1821687D01*
X-1046987Y1889760D01*
X-978915Y1755902D01*
G37*
D44*
G01*
X-901700Y1879600D03*
G01*
X-723498Y1970399D03*
G36*
X1343660Y-821436D02*
G01*
X1343660Y-741171D01*
X1478787Y-741171D01*
X1478787Y-821436D01*
G37*
G36*
X1343660Y-1011428D02*
G01*
X1343660Y-931163D01*
X1478787Y-931163D01*
X1478787Y-1011428D01*
G37*
G36*
X1543812Y-916431D02*
G01*
X1543812Y-836168D01*
X1678939Y-836168D01*
X1678939Y-916431D01*
G37*
G36*
X883157Y-848613D02*
G01*
X883157Y-700786D01*
X1006602Y-700786D01*
X1006602Y-848613D01*
G37*
G36*
X1076197Y-848613D02*
G01*
X1076197Y-700786D01*
X1199642Y-700786D01*
X1199642Y-848613D01*
G37*
G36*
X-35813Y-435102D02*
G01*
X-35813Y-311657D01*
X112013Y-311657D01*
X112013Y-435102D01*
G37*
G36*
X-35813Y-628142D02*
G01*
X-35813Y-504697D01*
X112013Y-504697D01*
X112013Y-628142D01*
G37*
G36*
X-1778000Y-1294129D02*
G01*
X-1816607Y-1159255D01*
X-1681987Y-1120647D01*
X-1643379Y-1255268D01*
G37*
D49*
G01*
X-2080031Y13500D03*
G36*
X109981Y1668779D02*
G01*
X109981Y1829054D01*
X219963Y1829054D01*
X219963Y1668779D01*
G37*
G36*
X-219963Y1668779D02*
G01*
X-219963Y1829054D01*
X-109981Y1829054D01*
X-109981Y1668779D01*
G37*
G36*
X-219963Y2159000D02*
G01*
X-219963Y2319020D01*
X-109981Y2319020D01*
X-109981Y2159000D01*
G37*
G36*
X109981Y2159000D02*
G01*
X109981Y2319020D01*
X219963Y2319020D01*
X219963Y2159000D01*
G37*
G36*
X1658365Y316737D02*
G01*
X1626107Y422147D01*
X1779523Y468884D01*
X1811528Y363728D01*
G37*
G36*
X1561845Y632460D02*
G01*
X1529842Y737615D01*
X1683004Y784605D01*
X1715262Y679195D01*
G37*
G36*
X2030729Y775715D02*
G01*
X1998472Y880871D01*
X2151379Y927607D01*
X2183638Y822452D01*
G37*
G36*
X2126995Y460247D02*
G01*
X2094991Y565404D01*
X2247900Y612139D01*
X2280158Y506984D01*
G37*
G36*
X893571Y-1618487D02*
G01*
X794765Y-1492250D01*
X881634Y-1424431D01*
X980186Y-1550670D01*
G37*
G36*
X1153668Y-1415287D02*
G01*
X1054862Y-1289050D01*
X1141476Y-1221231D01*
X1240281Y-1347470D01*
G37*
G36*
X1455165Y-1801368D02*
G01*
X1356613Y-1675129D01*
X1443228Y-1607565D01*
X1541779Y-1733550D01*
G37*
G36*
X1195070Y-2004568D02*
G01*
X1096518Y-1878329D01*
X1183386Y-1810512D01*
X1281684Y-1936750D01*
G37*
G36*
X-1160526Y-1402079D02*
G01*
X-1249426Y-1337563D01*
X-1155192Y-1207770D01*
X-1066292Y-1272539D01*
G37*
G36*
X-893571Y-1596136D02*
G01*
X-982471Y-1531365D01*
X-888237Y-1401826D01*
X-799337Y-1466342D01*
G37*
G36*
X-1181354Y-1992376D02*
G01*
X-1270507Y-1927860D01*
X-1176273Y-1798320D01*
X-1087373Y-1863089D01*
G37*
G36*
X-1448307Y-1798573D02*
G01*
X-1537462Y-1733804D01*
X-1443228Y-1604263D01*
X-1354328Y-1669034D01*
G37*
G36*
X-1549145Y620521D02*
G01*
X-1700529Y672592D01*
X-1664715Y776731D01*
X-1513331Y724407D01*
G37*
G36*
X-1656587Y308355D02*
G01*
X-1807971Y360679D01*
X-1772157Y464565D01*
X-1620773Y412495D01*
G37*
G36*
X-2119884Y468121D02*
G01*
X-2271268Y520192D01*
X-2235454Y624078D01*
X-2084070Y572007D01*
G37*
G36*
X-2012442Y780034D02*
G01*
X-2163826Y832104D01*
X-2128012Y935989D01*
X-1976628Y883920D01*
G37*
G36*
X1052829Y1050289D02*
G01*
X974344Y1134363D01*
X1162050Y1309370D01*
X1240536Y1225295D01*
G37*
G36*
X1209547Y881887D02*
G01*
X1131062Y966215D01*
X1318768Y1141221D01*
X1397254Y1057147D01*
G37*
G36*
X1366520Y713739D02*
G01*
X1288034Y798068D01*
X1475739Y973073D01*
X1554226Y888745D01*
G37*
G36*
X1712468Y1180592D02*
G01*
X1464055Y1447037D01*
X1651762Y1622044D01*
X1900173Y1355852D01*
G37*
G36*
X375920Y98552D02*
G01*
X198373Y288797D01*
X383286Y461263D01*
X560578Y271018D01*
G37*
G36*
X817879Y510794D02*
G01*
X640587Y701039D01*
X825500Y873505D01*
X1002792Y683260D01*
G37*
G36*
X661162Y-202184D02*
G01*
X487171Y-8889D01*
X675131Y160273D01*
X849121Y-33273D01*
G37*
G36*
X1110487Y202184D02*
G01*
X936497Y395478D01*
X1124204Y564642D01*
X1298447Y371347D01*
G37*
G36*
X2038604Y-1001521D02*
G01*
X1881123Y-944118D01*
X1938527Y-786637D01*
X2096008Y-844042D01*
G37*
D42*
G01*
X2075439Y-655360D03*
M02*
