M48
METRIC,LZ,000.000
;FILE_FORMAT=3:3
;TYPE=PLATED
;Layer: Drill PTH
;EasyEDA v6.4.25, 2021-11-16T21:36:29+01:00
;969fc306525a459593755dfbefa048c4,10
;Gerber Generator version 0.2
;Holesize 1 = 0.356 mm
T01C0.356
;Holesize 2 = 0.798 mm
T02C0.798
;Holesize 3 = 0.889 mm
T03C0.889
;Holesize 4 = 0.901 mm
T04C0.901
;Holesize 5 = 1.100 mm
T05C1.100
%
G05
G90
T01
X-008636Y-019177
X001651Y014478
X-001651Y014478
X-010922Y-000254
X-008255Y-007239
T02
X-017300Y-012073
X-020800Y000135
T03
X007316Y020754
X009702Y019886
X019886Y-008940
X020754Y-006554
T04
X-010799Y017888
X-009017Y018796
X-007235Y019704
T05
X-002921Y-021844
X-002921Y-019304
X-000381Y-021844
X-000381Y-019304
X002159Y-021844
X002159Y-019304
M30
