G04 Layer: TopLayer*
G04 EasyEDA v6.4.25, 2021-11-16T21:36:29+01:00*
G04 969fc306525a459593755dfbefa048c4,10*
G04 Gerber Generator version 0.2*
G04 Scale: 100 percent, Rotated: No, Reflected: No *
G04 Dimensions in millimeters *
G04 leading zeros omitted , absolute positions ,4 integer and 5 decimal *
%FSLAX45Y45*%
%MOMM*%

%ADD10C,0.5080*%
%ADD11C,0.6350*%
%ADD12C,0.3810*%
%ADD13C,0.6300*%
%ADD14C,0.6604*%
%ADD17R,1.2500X0.7000*%
%ADD19R,1.3770X1.1325*%
%ADD25C,1.5240*%
%ADD27C,1.5748*%
%ADD29C,1.4000*%
%ADD31C,1.1989*%

%LPD*%
D11*
X-2070354Y858012D02*
G01*
X-1993900Y965200D01*
X-1778000Y965200D01*
X-711200Y977900D01*
X-520700Y1231900D01*
X-1346200Y1752600D01*
X-1295400Y1866900D01*
X-1028700Y1993900D01*
X-901700Y1879600D01*
D12*
X-2177542Y546100D02*
G01*
X-2070100Y546100D01*
X-1701800Y863600D01*
X-660400Y889000D01*
X-393700Y1257300D01*
X-1080007Y1788921D01*
D11*
X-901700Y1879600D02*
G01*
X-266700Y1282700D01*
X-551179Y881887D01*
X-55118Y398526D01*
X-383539Y-215900D01*
D12*
X-1157986Y-1305052D02*
G01*
X-1135634Y-1282700D01*
X-673100Y-1282700D01*
X-673100Y-2044700D01*
X-317500Y-2336800D01*
X266700Y-2336800D01*
X520700Y-2273300D01*
X825500Y-2184400D01*
X1193800Y-2044700D01*
X1422400Y-1879600D01*
X1449255Y-1704375D01*
D10*
X-1089609Y-215900D02*
G01*
X-1092200Y-25400D01*
X-901700Y1879600D02*
G01*
X-889000Y2044700D01*
X-800100Y2108200D01*
X-241300Y2362200D01*
X-63500Y2362200D01*
X46989Y2239010D01*
X165100Y2239010D01*
D12*
X2090927Y851662D02*
G01*
X1968500Y729234D01*
X1968500Y-241300D01*
X1638300Y-571500D01*
X1054100Y-571500D01*
X1041400Y-584200D01*
X1041400Y-1168400D01*
X887476Y-1322323D01*
X887476Y-1521460D01*
X164998Y1748904D02*
G01*
X165100Y1447800D01*
X38100Y-373278D02*
G01*
X38100Y444500D01*
X-431800Y901700D01*
X-165100Y1270000D01*
X-165100Y1447800D01*
D11*
X165100Y2239010D02*
G01*
X41147Y2055876D01*
X25400Y1181100D01*
X-177800Y914400D01*
X90931Y660400D01*
X193294Y784605D01*
D12*
X-165100Y2239010D02*
G01*
X-57404Y1952497D01*
X-69342Y1228344D01*
X-309626Y907795D01*
X63500Y546100D01*
X431800Y622300D01*
X974852Y59436D01*
X1719071Y392937D01*
X-383542Y-342900D02*
G01*
X-647700Y-342900D01*
X-825500Y-495300D01*
X-825500Y-723900D01*
X-825500Y-723900D02*
G01*
X-825500Y-723900D01*
X-1246555Y-723900D01*
X-1729968Y-1207312D01*
D11*
X193200Y784694D02*
G01*
X469900Y723900D01*
X952500Y241300D01*
X1117396Y383448D01*
X35399Y917105D02*
G01*
X175099Y1082205D01*
X668152Y-21051D02*
G01*
X761400Y-114300D01*
X1028700Y-114300D01*
X1866900Y292100D01*
X1841500Y520700D01*
X1622468Y644568D01*
X1622468Y708459D01*
X1264213Y1011618D02*
G01*
X1117396Y383448D01*
X1421129Y843534D02*
G01*
X1498600Y1041400D01*
X1333500Y1231900D01*
X990600Y914400D01*
X818642Y726694D01*
X821689Y692150D01*
X1622552Y708405D02*
G01*
X1638300Y724407D01*
X1638300Y1091692D01*
X1362455Y1368297D01*
X1264412Y1353312D01*
X1219200Y1291589D01*
X1107358Y1179827D02*
G01*
X1219200Y1291668D01*
X1219200Y1638300D01*
X970239Y1887260D01*
X970239Y1988563D01*
X-165100Y1748789D02*
G01*
X-386587Y1970278D01*
X-723392Y1970278D01*
X175005Y1082294D02*
G01*
X558800Y1295400D01*
X736600Y1803400D01*
X970279Y1988565D01*
X-1445892Y-1701421D02*
G01*
X-1395470Y-1651000D01*
X-1130300Y-1651000D01*
X-863600Y-1917700D01*
D12*
X-1607057Y698500D02*
G01*
X-1968500Y457200D01*
X-2247900Y63500D01*
X-2260600Y-266700D01*
X-2197100Y-673100D01*
X-2006600Y-1219200D01*
X-1727200Y-1600200D01*
X-1498600Y-1816100D01*
X-1346200Y-1892300D01*
X-1178813Y-1895347D01*
D11*
X-891031Y-1498854D02*
G01*
X-1536700Y-1447800D01*
X-1816100Y-1333500D01*
X-1981200Y-990600D01*
X-2092705Y-536194D01*
D10*
X-292100Y-1930400D02*
G01*
X-165100Y-2057400D01*
X863600Y-2057400D01*
X1028700Y-1981200D01*
X1189228Y-1907539D01*
D11*
X-1089606Y-596900D02*
G01*
X-2080257Y-601979D01*
X-2080031Y-601751D01*
X-2080031Y13487D01*
X215900Y-1930400D02*
G01*
X736600Y-1930400D01*
X1147571Y-1519428D01*
X1147571Y-1318260D01*
X1189228Y-1907539D02*
G01*
X1189228Y-1680971D01*
X1739900Y-1130300D01*
X2044700Y-1130300D01*
X2159000Y-825500D01*
X2075434Y-655320D01*
D12*
X1138021Y-774700D02*
G01*
X1144625Y-781304D01*
X1411300Y-781304D01*
D11*
X2075434Y-655370D02*
G01*
X2187536Y-543267D01*
X2187536Y536140D01*
D10*
X1988560Y-894039D02*
G01*
X1970821Y-876300D01*
X1611299Y-876300D01*
D11*
X1147587Y-1318257D02*
G01*
X1411300Y-1054544D01*
X1411300Y-971295D01*
D12*
X-383590Y-469900D02*
G01*
X-571500Y-469900D01*
X-571500Y-1905000D01*
X-292100Y-2184400D01*
X-38100Y-1930400D02*
G01*
X38100Y-1854200D01*
X38100Y-566521D01*
X-383590Y-596900D02*
G01*
X-353212Y-566521D01*
X38100Y-566521D01*
X944879Y-774700D02*
G01*
X660400Y-469900D01*
X-383590Y-469900D01*
D11*
X-2080031Y13487D02*
G01*
X-1714370Y379148D01*
X-1714370Y386524D01*
X379557Y279923D02*
G01*
X668152Y-8671D01*
X668152Y-21051D01*
D10*
X332900Y949794D02*
G01*
X558800Y965200D01*
X821674Y692205D01*
X449684Y1604845D02*
G01*
X584200Y1854200D01*
X731560Y2075436D01*
X821674Y692205D02*
G01*
X762000Y1231900D01*
X947315Y1443154D01*
D13*
X-1008608Y-215900D02*
G01*
X-1170609Y-215900D01*
X-1008608Y-342900D02*
G01*
X-1170609Y-342900D01*
X-1008608Y-469900D02*
G01*
X-1170609Y-469900D01*
X-1008608Y-596900D02*
G01*
X-1170609Y-596900D01*
X-302590Y-215900D02*
G01*
X-464591Y-215900D01*
X-302590Y-342900D02*
G01*
X-464591Y-342900D01*
X-302590Y-469900D02*
G01*
X-464591Y-469900D01*
X-302590Y-596900D02*
G01*
X-464591Y-596900D01*
G36*
X95803Y778301D02*
G01*
X182587Y881717D01*
X290596Y791085D01*
X203819Y687666D01*
G37*
G36*
X46012Y820082D02*
G01*
X132796Y923498D01*
X24780Y1014133D01*
X-61996Y910714D01*
G37*
G36*
X272491Y1088598D02*
G01*
X185714Y985179D01*
X77701Y1075817D01*
X164477Y1179230D01*
G37*
G36*
X322285Y1046820D02*
G01*
X235508Y943401D01*
X343522Y852769D01*
X430298Y956182D01*
G37*
G36*
X1019794Y1261818D02*
G01*
X782091Y1339052D01*
X874826Y1624467D01*
X1112530Y1547230D01*
G37*
G36*
X522165Y1423509D02*
G01*
X284462Y1500743D01*
X377197Y1786155D01*
X614900Y1708922D01*
G37*
D17*
G01*
X1411300Y-781304D03*
G01*
X1411300Y-971295D03*
G01*
X1611299Y-876300D03*
G36*
X1001400Y-705850D02*
G01*
X1001400Y-843549D01*
X888146Y-843549D01*
X888146Y-705850D01*
G37*
G36*
X1081399Y-705850D02*
G01*
X1081399Y-843549D01*
X1194653Y-843549D01*
X1194653Y-705850D01*
G37*
G36*
X106949Y-429900D02*
G01*
X-30749Y-429900D01*
X-30749Y-316646D01*
X106949Y-316646D01*
G37*
D19*
G01*
X38100Y-566521D03*
G36*
X214906Y1823951D02*
G01*
X214906Y1673837D01*
X115084Y1673837D01*
X115084Y1823951D01*
G37*
G36*
X-115095Y1823951D02*
G01*
X-115095Y1673837D01*
X-214917Y1673837D01*
X-214917Y1823951D01*
G37*
G36*
X-115095Y2313825D02*
G01*
X-115095Y2163965D01*
X-214917Y2163965D01*
X-214917Y2313825D01*
G37*
G36*
X214906Y2313825D02*
G01*
X214906Y2163965D01*
X115084Y2163965D01*
X115084Y2313825D01*
G37*
G36*
X1805310Y367096D02*
G01*
X1661754Y323207D01*
X1632569Y418665D01*
X1776125Y462554D01*
G37*
G36*
X1708825Y682678D02*
G01*
X1565272Y638789D01*
X1536087Y734247D01*
X1679641Y778139D01*
G37*
G36*
X2177295Y825903D02*
G01*
X2033983Y782088D01*
X2004799Y877549D01*
X2148111Y921362D01*
G37*
G36*
X2273780Y510321D02*
G01*
X2130468Y466506D01*
X2101281Y561967D01*
X2244592Y605779D01*
G37*
G36*
X894420Y-1611287D02*
G01*
X801999Y-1492999D01*
X880661Y-1431541D01*
X973081Y-1549831D01*
G37*
G36*
X1154465Y-1408120D02*
G01*
X1062047Y-1289827D01*
X1140706Y-1228371D01*
X1233126Y-1346662D01*
G37*
G36*
X1456060Y-1794144D02*
G01*
X1363799Y-1676054D01*
X1442458Y-1614596D01*
X1534723Y-1732688D01*
G37*
G36*
X1196017Y-1997313D02*
G01*
X1103754Y-1879224D01*
X1182413Y-1817766D01*
X1274676Y-1935855D01*
G37*
G36*
X-1242369Y-1336390D02*
G01*
X-1154135Y-1214945D01*
X-1073376Y-1273619D01*
X-1161610Y-1395064D01*
G37*
G36*
X-975393Y-1530357D02*
G01*
X-887158Y-1408915D01*
X-806401Y-1467589D01*
X-894636Y-1589034D01*
G37*
G36*
X-1263335Y-1926676D02*
G01*
X-1175247Y-1805437D01*
X-1094491Y-1864111D01*
X-1182575Y-1985350D01*
G37*
G36*
X-1530309Y-1732706D02*
G01*
X-1442224Y-1611467D01*
X-1361467Y-1670141D01*
X-1449552Y-1791378D01*
G37*
G36*
X-1661642Y770168D02*
G01*
X-1519707Y721296D01*
X-1552206Y626912D01*
X-1694141Y675784D01*
G37*
G36*
X-1769082Y458144D02*
G01*
X-1627146Y409272D01*
X-1659643Y314888D01*
X-1801581Y363761D01*
G37*
G36*
X-2232266Y617634D02*
G01*
X-2090572Y568843D01*
X-2123069Y474459D01*
X-2264765Y523250D01*
G37*
G36*
X-2124829Y929655D02*
G01*
X-1983132Y880866D01*
X-2015632Y786483D01*
X-2157328Y835271D01*
G37*
G36*
X981410Y1134168D02*
G01*
X1053020Y1057379D01*
X1233299Y1225491D01*
X1161691Y1302280D01*
G37*
G36*
X1138270Y965956D02*
G01*
X1209880Y889167D01*
X1390159Y1057280D01*
X1318552Y1134069D01*
G37*
G36*
X1295128Y797745D02*
G01*
X1366738Y720956D01*
X1547017Y889071D01*
X1475412Y965860D01*
G37*
G36*
X1712757Y1187874D02*
G01*
X1471330Y1446773D01*
X1651609Y1614886D01*
X1893039Y1355989D01*
G37*
G36*
X553504Y271226D02*
G01*
X376100Y105793D01*
X205607Y288622D01*
X383011Y454055D01*
G37*
G36*
X995621Y683506D02*
G01*
X818215Y518076D01*
X647727Y700905D01*
X825131Y866335D01*
G37*
G36*
X841921Y-32783D02*
G01*
X661657Y-195094D01*
X494383Y-9319D01*
X674646Y152991D01*
G37*
G36*
X1291168Y371716D02*
G01*
X1110902Y209407D01*
X943627Y395183D01*
X1123891Y557491D01*
G37*
D25*
G01*
X-292100Y-2184400D03*
G01*
X-292100Y-1930400D03*
G01*
X-38100Y-2184400D03*
G01*
X-38100Y-1930400D03*
G01*
X215900Y-2184400D03*
G01*
X215900Y-1930400D03*
G36*
X832482Y2122497D02*
G01*
X778619Y1974514D01*
X630638Y2028375D01*
X684496Y2176358D01*
G37*
D27*
G01*
X970239Y1988563D03*
G36*
X-1174048Y1819391D02*
G01*
X-1049312Y1882950D01*
X-985751Y1758210D01*
X-1110490Y1694654D01*
G37*
D29*
G01*
X-901700Y1879600D03*
G01*
X-723498Y1970399D03*
G36*
X-1655826Y-1248399D02*
G01*
X-1771068Y-1281445D01*
X-1804116Y-1166202D01*
X-1688871Y-1133157D01*
G37*
D31*
G01*
X-2080031Y13500D03*
G36*
X1941502Y-793120D02*
G01*
X2089485Y-846980D01*
X2035622Y-994963D01*
X1887641Y-941103D01*
G37*
D27*
G01*
X2075439Y-655360D03*
D14*
G01*
X-863600Y-1917700D03*
G01*
X165100Y1447800D03*
G01*
X-165100Y1447800D03*
G01*
X-1092200Y-25400D03*
G01*
X-825500Y-723900D03*
M02*
